G04 #@! TF.FileFunction,Legend,Top*
%FSLAX46Y46*%
G04 Gerber Fmt 4.6, Leading zero omitted, Abs format (unit mm)*
G04 Created by KiCad (PCBNEW 4.0.2+dfsg1-stable) date ven. 23 juin 2017 15:57:35 CEST*
%MOMM*%
G01*
G04 APERTURE LIST*
%ADD10C,0.100000*%
%ADD11C,0.150000*%
%ADD12C,0.381000*%
%ADD13C,0.285750*%
%ADD14C,0.304800*%
G04 APERTURE END LIST*
D10*
D11*
X253230000Y-75955000D02*
X253230000Y-74685000D01*
X245880000Y-75955000D02*
X245880000Y-74685000D01*
X245880000Y-66285000D02*
X245880000Y-67555000D01*
X253230000Y-66285000D02*
X253230000Y-67555000D01*
X253230000Y-75955000D02*
X245880000Y-75955000D01*
X253230000Y-66285000D02*
X245880000Y-66285000D01*
X253230000Y-74685000D02*
X254165000Y-74685000D01*
X236855000Y-73660000D02*
X236855000Y-68580000D01*
X236855000Y-68580000D02*
X239395000Y-68580000D01*
X239395000Y-68580000D02*
X239395000Y-73660000D01*
X239395000Y-73660000D02*
X236855000Y-73660000D01*
X238125000Y-73660000D02*
X238125000Y-74930000D01*
X238125000Y-68580000D02*
X238125000Y-67310000D01*
X241300000Y-73660000D02*
X241300000Y-68580000D01*
X241300000Y-68580000D02*
X243840000Y-68580000D01*
X243840000Y-68580000D02*
X243840000Y-73660000D01*
X243840000Y-73660000D02*
X241300000Y-73660000D01*
X242570000Y-73660000D02*
X242570000Y-74930000D01*
X242570000Y-68580000D02*
X242570000Y-67310000D01*
X222885000Y-73660000D02*
X222885000Y-68580000D01*
X222885000Y-68580000D02*
X225425000Y-68580000D01*
X225425000Y-68580000D02*
X225425000Y-73660000D01*
X225425000Y-73660000D02*
X222885000Y-73660000D01*
X224155000Y-73660000D02*
X224155000Y-74930000D01*
X224155000Y-68580000D02*
X224155000Y-67310000D01*
D12*
X235585000Y-120650000D02*
X235585000Y-117602000D01*
X235585000Y-117602000D02*
X212725000Y-117602000D01*
X212725000Y-117602000D02*
X212725000Y-120650000D01*
X212725000Y-125730000D02*
X212725000Y-128778000D01*
X212725000Y-128778000D02*
X235585000Y-128778000D01*
X235585000Y-128778000D02*
X235585000Y-125730000D01*
X212725000Y-121920000D02*
X212725000Y-121920000D01*
X235585000Y-120650000D02*
X235585000Y-125730000D01*
X212725000Y-125730000D02*
X212725000Y-120650000D01*
X235585000Y-132715000D02*
X235585000Y-129667000D01*
X235585000Y-129667000D02*
X212725000Y-129667000D01*
X212725000Y-129667000D02*
X212725000Y-132715000D01*
X212725000Y-137795000D02*
X212725000Y-140843000D01*
X212725000Y-140843000D02*
X235585000Y-140843000D01*
X235585000Y-140843000D02*
X235585000Y-137795000D01*
X212725000Y-133985000D02*
X212725000Y-133985000D01*
X235585000Y-132715000D02*
X235585000Y-137795000D01*
X212725000Y-137795000D02*
X212725000Y-132715000D01*
X244475000Y-153035000D02*
X247523000Y-153035000D01*
X247523000Y-153035000D02*
X247523000Y-130175000D01*
X247523000Y-130175000D02*
X244475000Y-130175000D01*
X239395000Y-130175000D02*
X236347000Y-130175000D01*
X236347000Y-130175000D02*
X236347000Y-153035000D01*
X236347000Y-153035000D02*
X239395000Y-153035000D01*
X243205000Y-130175000D02*
X243205000Y-130175000D01*
X244475000Y-153035000D02*
X239395000Y-153035000D01*
X239395000Y-130175000D02*
X244475000Y-130175000D01*
D11*
X258945000Y-141995000D02*
X258945000Y-140725000D01*
X251595000Y-141995000D02*
X251595000Y-140725000D01*
X251595000Y-119625000D02*
X251595000Y-120895000D01*
X258945000Y-119625000D02*
X258945000Y-120895000D01*
X258945000Y-141995000D02*
X251595000Y-141995000D01*
X258945000Y-119625000D02*
X251595000Y-119625000D01*
X258945000Y-140725000D02*
X259880000Y-140725000D01*
X251595000Y-94225000D02*
X251595000Y-95495000D01*
X258945000Y-94225000D02*
X258945000Y-95495000D01*
X258945000Y-116595000D02*
X258945000Y-115325000D01*
X251595000Y-116595000D02*
X251595000Y-115325000D01*
X251595000Y-94225000D02*
X258945000Y-94225000D01*
X251595000Y-116595000D02*
X258945000Y-116595000D01*
X251595000Y-95495000D02*
X250660000Y-95495000D01*
X273050000Y-118110000D02*
X273050000Y-125730000D01*
X275590000Y-118110000D02*
X275590000Y-125730000D01*
X275870000Y-115290000D02*
X275870000Y-116840000D01*
X273050000Y-125730000D02*
X275590000Y-125730000D01*
X275590000Y-118110000D02*
X273050000Y-118110000D01*
X272770000Y-116840000D02*
X272770000Y-115290000D01*
X272770000Y-115290000D02*
X275870000Y-115290000D01*
X271782540Y-46990000D02*
X271782540Y-48006000D01*
X271782540Y-42164000D02*
X271782540Y-40894000D01*
X273052540Y-42418000D02*
X270512540Y-42418000D01*
X273052540Y-42672000D02*
X270512540Y-42672000D01*
X273052540Y-42926000D02*
X270512540Y-42926000D01*
X273052540Y-42164000D02*
X270512540Y-42164000D01*
X273052540Y-43180000D02*
X270512540Y-41910000D01*
X273052540Y-41910000D02*
X270512540Y-43180000D01*
X273052540Y-43180000D02*
X270512540Y-43180000D01*
X273052540Y-42545000D02*
X270512540Y-42545000D01*
X270512540Y-41910000D02*
X273052540Y-41910000D01*
X273052540Y-41910000D02*
X273052540Y-46990000D01*
X273052540Y-46990000D02*
X270512540Y-46990000D01*
X270512540Y-46990000D02*
X270512540Y-41910000D01*
X254002540Y-46990000D02*
X254002540Y-48006000D01*
X254002540Y-42164000D02*
X254002540Y-40894000D01*
X255272540Y-42418000D02*
X252732540Y-42418000D01*
X255272540Y-42672000D02*
X252732540Y-42672000D01*
X255272540Y-42926000D02*
X252732540Y-42926000D01*
X255272540Y-42164000D02*
X252732540Y-42164000D01*
X255272540Y-43180000D02*
X252732540Y-41910000D01*
X255272540Y-41910000D02*
X252732540Y-43180000D01*
X255272540Y-43180000D02*
X252732540Y-43180000D01*
X255272540Y-42545000D02*
X252732540Y-42545000D01*
X252732540Y-41910000D02*
X255272540Y-41910000D01*
X255272540Y-41910000D02*
X255272540Y-46990000D01*
X255272540Y-46990000D02*
X252732540Y-46990000D01*
X252732540Y-46990000D02*
X252732540Y-41910000D01*
X235587540Y-46990000D02*
X235587540Y-48006000D01*
X235587540Y-42164000D02*
X235587540Y-40894000D01*
X236857540Y-42418000D02*
X234317540Y-42418000D01*
X236857540Y-42672000D02*
X234317540Y-42672000D01*
X236857540Y-42926000D02*
X234317540Y-42926000D01*
X236857540Y-42164000D02*
X234317540Y-42164000D01*
X236857540Y-43180000D02*
X234317540Y-41910000D01*
X236857540Y-41910000D02*
X234317540Y-43180000D01*
X236857540Y-43180000D02*
X234317540Y-43180000D01*
X236857540Y-42545000D02*
X234317540Y-42545000D01*
X234317540Y-41910000D02*
X236857540Y-41910000D01*
X236857540Y-41910000D02*
X236857540Y-46990000D01*
X236857540Y-46990000D02*
X234317540Y-46990000D01*
X234317540Y-46990000D02*
X234317540Y-41910000D01*
X217807540Y-46990000D02*
X217807540Y-48006000D01*
X217807540Y-42164000D02*
X217807540Y-40894000D01*
X219077540Y-42418000D02*
X216537540Y-42418000D01*
X219077540Y-42672000D02*
X216537540Y-42672000D01*
X219077540Y-42926000D02*
X216537540Y-42926000D01*
X219077540Y-42164000D02*
X216537540Y-42164000D01*
X219077540Y-43180000D02*
X216537540Y-41910000D01*
X219077540Y-41910000D02*
X216537540Y-43180000D01*
X219077540Y-43180000D02*
X216537540Y-43180000D01*
X219077540Y-42545000D02*
X216537540Y-42545000D01*
X216537540Y-41910000D02*
X219077540Y-41910000D01*
X219077540Y-41910000D02*
X219077540Y-46990000D01*
X219077540Y-46990000D02*
X216537540Y-46990000D01*
X216537540Y-46990000D02*
X216537540Y-41910000D01*
X270565112Y-82804904D02*
G75*
G03X270550000Y-79780000I2484888J1524904D01*
G01*
X270550000Y-82780000D02*
X270550000Y-79780000D01*
X275567936Y-81280000D02*
G75*
G03X275567936Y-81280000I-2517936J0D01*
G01*
X267970000Y-140970000D02*
X267970000Y-90170000D01*
X262890000Y-92710000D02*
X262890000Y-140970000D01*
X267970000Y-140970000D02*
X262890000Y-140970000D01*
X267970000Y-90170000D02*
X265430000Y-90170000D01*
X264160000Y-89890000D02*
X262610000Y-89890000D01*
X265430000Y-90170000D02*
X265430000Y-92710000D01*
X265430000Y-92710000D02*
X262890000Y-92710000D01*
X262610000Y-89890000D02*
X262610000Y-91440000D01*
X273050000Y-97790000D02*
X273050000Y-102870000D01*
X273050000Y-102870000D02*
X275590000Y-102870000D01*
X275590000Y-102870000D02*
X275590000Y-97790000D01*
X275870000Y-94970000D02*
X275870000Y-96520000D01*
X275590000Y-97790000D02*
X273050000Y-97790000D01*
X272770000Y-96520000D02*
X272770000Y-94970000D01*
X272770000Y-94970000D02*
X275870000Y-94970000D01*
X273050000Y-107950000D02*
X273050000Y-113030000D01*
X273050000Y-113030000D02*
X275590000Y-113030000D01*
X275590000Y-113030000D02*
X275590000Y-107950000D01*
X275870000Y-105130000D02*
X275870000Y-106680000D01*
X275590000Y-107950000D02*
X273050000Y-107950000D01*
X272770000Y-106680000D02*
X272770000Y-105130000D01*
X272770000Y-105130000D02*
X275870000Y-105130000D01*
X271145000Y-52070000D02*
X263525000Y-52070000D01*
X271145000Y-56515000D02*
X271145000Y-57785000D01*
X263525000Y-52705000D02*
X263525000Y-51435000D01*
X263525000Y-51435000D02*
X271145000Y-51435000D01*
X271145000Y-51435000D02*
X271145000Y-52705000D01*
X271145000Y-57785000D02*
X263525000Y-57785000D01*
X263525000Y-57785000D02*
X263525000Y-56515000D01*
X253365000Y-52070000D02*
X245745000Y-52070000D01*
X253365000Y-56515000D02*
X253365000Y-57785000D01*
X245745000Y-52705000D02*
X245745000Y-51435000D01*
X245745000Y-51435000D02*
X253365000Y-51435000D01*
X253365000Y-51435000D02*
X253365000Y-52705000D01*
X253365000Y-57785000D02*
X245745000Y-57785000D01*
X245745000Y-57785000D02*
X245745000Y-56515000D01*
X234950000Y-52070000D02*
X227330000Y-52070000D01*
X234950000Y-56515000D02*
X234950000Y-57785000D01*
X227330000Y-52705000D02*
X227330000Y-51435000D01*
X227330000Y-51435000D02*
X234950000Y-51435000D01*
X234950000Y-51435000D02*
X234950000Y-52705000D01*
X234950000Y-57785000D02*
X227330000Y-57785000D01*
X227330000Y-57785000D02*
X227330000Y-56515000D01*
X217170000Y-52070000D02*
X209550000Y-52070000D01*
X217170000Y-56515000D02*
X217170000Y-57785000D01*
X209550000Y-52705000D02*
X209550000Y-51435000D01*
X209550000Y-51435000D02*
X217170000Y-51435000D01*
X217170000Y-51435000D02*
X217170000Y-52705000D01*
X217170000Y-57785000D02*
X209550000Y-57785000D01*
X209550000Y-57785000D02*
X209550000Y-56515000D01*
X205740000Y-149225000D02*
X205740000Y-144145000D01*
X211455000Y-144145000D02*
X210185000Y-144145000D01*
X205740000Y-144145000D02*
X206375000Y-144145000D01*
X210820000Y-149225000D02*
X210185000Y-149225000D01*
X205740000Y-149225000D02*
X206375000Y-149225000D01*
X205740000Y-149225000D02*
X205105000Y-149225000D01*
X205105000Y-149225000D02*
X205105000Y-144145000D01*
X205105000Y-144145000D02*
X205740000Y-144145000D01*
X211455000Y-144145000D02*
X211455000Y-149225000D01*
X211455000Y-149225000D02*
X210820000Y-149225000D01*
X205740000Y-137160000D02*
X205740000Y-132080000D01*
X211455000Y-132080000D02*
X210185000Y-132080000D01*
X205740000Y-132080000D02*
X206375000Y-132080000D01*
X210820000Y-137160000D02*
X210185000Y-137160000D01*
X205740000Y-137160000D02*
X206375000Y-137160000D01*
X205740000Y-137160000D02*
X205105000Y-137160000D01*
X205105000Y-137160000D02*
X205105000Y-132080000D01*
X205105000Y-132080000D02*
X205740000Y-132080000D01*
X211455000Y-132080000D02*
X211455000Y-137160000D01*
X211455000Y-137160000D02*
X210820000Y-137160000D01*
X205740000Y-125730000D02*
X205740000Y-120650000D01*
X211455000Y-120650000D02*
X210185000Y-120650000D01*
X205740000Y-120650000D02*
X206375000Y-120650000D01*
X210820000Y-125730000D02*
X210185000Y-125730000D01*
X205740000Y-125730000D02*
X206375000Y-125730000D01*
X205740000Y-125730000D02*
X205105000Y-125730000D01*
X205105000Y-125730000D02*
X205105000Y-120650000D01*
X205105000Y-120650000D02*
X205740000Y-120650000D01*
X211455000Y-120650000D02*
X211455000Y-125730000D01*
X211455000Y-125730000D02*
X210820000Y-125730000D01*
X205740000Y-113665000D02*
X205740000Y-108585000D01*
X211455000Y-108585000D02*
X210185000Y-108585000D01*
X205740000Y-108585000D02*
X206375000Y-108585000D01*
X210820000Y-113665000D02*
X210185000Y-113665000D01*
X205740000Y-113665000D02*
X206375000Y-113665000D01*
X205740000Y-113665000D02*
X205105000Y-113665000D01*
X205105000Y-113665000D02*
X205105000Y-108585000D01*
X205105000Y-108585000D02*
X205740000Y-108585000D01*
X211455000Y-108585000D02*
X211455000Y-113665000D01*
X211455000Y-113665000D02*
X210820000Y-113665000D01*
X255905000Y-147320000D02*
X248285000Y-147320000D01*
X255905000Y-151765000D02*
X255905000Y-153035000D01*
X248285000Y-147955000D02*
X248285000Y-146685000D01*
X248285000Y-146685000D02*
X255905000Y-146685000D01*
X255905000Y-146685000D02*
X255905000Y-147955000D01*
X255905000Y-153035000D02*
X248285000Y-153035000D01*
X248285000Y-153035000D02*
X248285000Y-151765000D01*
X243840000Y-123190000D02*
X236220000Y-123190000D01*
X243840000Y-127635000D02*
X243840000Y-128905000D01*
X236220000Y-123825000D02*
X236220000Y-122555000D01*
X236220000Y-122555000D02*
X243840000Y-122555000D01*
X243840000Y-122555000D02*
X243840000Y-123825000D01*
X243840000Y-128905000D02*
X236220000Y-128905000D01*
X236220000Y-128905000D02*
X236220000Y-127635000D01*
X268605000Y-43180000D02*
X263525000Y-43180000D01*
X263525000Y-37465000D02*
X263525000Y-38735000D01*
X263525000Y-43180000D02*
X263525000Y-42545000D01*
X268605000Y-38100000D02*
X268605000Y-38735000D01*
X268605000Y-43180000D02*
X268605000Y-42545000D01*
X268605000Y-43180000D02*
X268605000Y-43815000D01*
X268605000Y-43815000D02*
X263525000Y-43815000D01*
X263525000Y-43815000D02*
X263525000Y-43180000D01*
X263525000Y-37465000D02*
X268605000Y-37465000D01*
X268605000Y-37465000D02*
X268605000Y-38100000D01*
X250825000Y-43180000D02*
X245745000Y-43180000D01*
X245745000Y-37465000D02*
X245745000Y-38735000D01*
X245745000Y-43180000D02*
X245745000Y-42545000D01*
X250825000Y-38100000D02*
X250825000Y-38735000D01*
X250825000Y-43180000D02*
X250825000Y-42545000D01*
X250825000Y-43180000D02*
X250825000Y-43815000D01*
X250825000Y-43815000D02*
X245745000Y-43815000D01*
X245745000Y-43815000D02*
X245745000Y-43180000D01*
X245745000Y-37465000D02*
X250825000Y-37465000D01*
X250825000Y-37465000D02*
X250825000Y-38100000D01*
X232410000Y-43180000D02*
X227330000Y-43180000D01*
X227330000Y-37465000D02*
X227330000Y-38735000D01*
X227330000Y-43180000D02*
X227330000Y-42545000D01*
X232410000Y-38100000D02*
X232410000Y-38735000D01*
X232410000Y-43180000D02*
X232410000Y-42545000D01*
X232410000Y-43180000D02*
X232410000Y-43815000D01*
X232410000Y-43815000D02*
X227330000Y-43815000D01*
X227330000Y-43815000D02*
X227330000Y-43180000D01*
X227330000Y-37465000D02*
X232410000Y-37465000D01*
X232410000Y-37465000D02*
X232410000Y-38100000D01*
X214630000Y-43180000D02*
X209550000Y-43180000D01*
X209550000Y-37465000D02*
X209550000Y-38735000D01*
X209550000Y-43180000D02*
X209550000Y-42545000D01*
X214630000Y-38100000D02*
X214630000Y-38735000D01*
X214630000Y-43180000D02*
X214630000Y-42545000D01*
X214630000Y-43180000D02*
X214630000Y-43815000D01*
X214630000Y-43815000D02*
X209550000Y-43815000D01*
X209550000Y-43815000D02*
X209550000Y-43180000D01*
X209550000Y-37465000D02*
X214630000Y-37465000D01*
X214630000Y-37465000D02*
X214630000Y-38100000D01*
X245110000Y-105410000D02*
X245110000Y-92710000D01*
X245110000Y-92710000D02*
X247650000Y-92710000D01*
X247650000Y-92710000D02*
X247650000Y-105410000D01*
X244830000Y-108230000D02*
X244830000Y-106680000D01*
X245110000Y-105410000D02*
X247650000Y-105410000D01*
X247930000Y-106680000D02*
X247930000Y-108230000D01*
X247930000Y-108230000D02*
X244830000Y-108230000D01*
X205740000Y-101600000D02*
X205740000Y-96520000D01*
X211455000Y-96520000D02*
X210185000Y-96520000D01*
X205740000Y-96520000D02*
X206375000Y-96520000D01*
X210820000Y-101600000D02*
X210185000Y-101600000D01*
X205740000Y-101600000D02*
X206375000Y-101600000D01*
X205740000Y-101600000D02*
X205105000Y-101600000D01*
X205105000Y-101600000D02*
X205105000Y-96520000D01*
X205105000Y-96520000D02*
X205740000Y-96520000D01*
X211455000Y-96520000D02*
X211455000Y-101600000D01*
X211455000Y-101600000D02*
X210820000Y-101600000D01*
X268605000Y-50165000D02*
X263525000Y-50165000D01*
X263525000Y-44450000D02*
X263525000Y-45720000D01*
X263525000Y-50165000D02*
X263525000Y-49530000D01*
X268605000Y-45085000D02*
X268605000Y-45720000D01*
X268605000Y-50165000D02*
X268605000Y-49530000D01*
X268605000Y-50165000D02*
X268605000Y-50800000D01*
X268605000Y-50800000D02*
X263525000Y-50800000D01*
X263525000Y-50800000D02*
X263525000Y-50165000D01*
X263525000Y-44450000D02*
X268605000Y-44450000D01*
X268605000Y-44450000D02*
X268605000Y-45085000D01*
X250825000Y-50165000D02*
X245745000Y-50165000D01*
X245745000Y-44450000D02*
X245745000Y-45720000D01*
X245745000Y-50165000D02*
X245745000Y-49530000D01*
X250825000Y-45085000D02*
X250825000Y-45720000D01*
X250825000Y-50165000D02*
X250825000Y-49530000D01*
X250825000Y-50165000D02*
X250825000Y-50800000D01*
X250825000Y-50800000D02*
X245745000Y-50800000D01*
X245745000Y-50800000D02*
X245745000Y-50165000D01*
X245745000Y-44450000D02*
X250825000Y-44450000D01*
X250825000Y-44450000D02*
X250825000Y-45085000D01*
X232410000Y-50165000D02*
X227330000Y-50165000D01*
X227330000Y-44450000D02*
X227330000Y-45720000D01*
X227330000Y-50165000D02*
X227330000Y-49530000D01*
X232410000Y-45085000D02*
X232410000Y-45720000D01*
X232410000Y-50165000D02*
X232410000Y-49530000D01*
X232410000Y-50165000D02*
X232410000Y-50800000D01*
X232410000Y-50800000D02*
X227330000Y-50800000D01*
X227330000Y-50800000D02*
X227330000Y-50165000D01*
X227330000Y-44450000D02*
X232410000Y-44450000D01*
X232410000Y-44450000D02*
X232410000Y-45085000D01*
X214630000Y-50165000D02*
X209550000Y-50165000D01*
X209550000Y-44450000D02*
X209550000Y-45720000D01*
X209550000Y-50165000D02*
X209550000Y-49530000D01*
X214630000Y-45085000D02*
X214630000Y-45720000D01*
X214630000Y-50165000D02*
X214630000Y-49530000D01*
X214630000Y-50165000D02*
X214630000Y-50800000D01*
X214630000Y-50800000D02*
X209550000Y-50800000D01*
X209550000Y-50800000D02*
X209550000Y-50165000D01*
X209550000Y-44450000D02*
X214630000Y-44450000D01*
X214630000Y-44450000D02*
X214630000Y-45085000D01*
X265811000Y-58547000D02*
X265811000Y-59690000D01*
X268859000Y-58547000D02*
X268859000Y-59690000D01*
X272669000Y-59690000D02*
X272669000Y-63373000D01*
X272669000Y-63373000D02*
X262001000Y-63373000D01*
X262001000Y-63373000D02*
X262001000Y-59690000D01*
X272669000Y-58547000D02*
X272669000Y-59690000D01*
X272669000Y-59690000D02*
X262001000Y-59690000D01*
X262001000Y-59690000D02*
X262001000Y-58547000D01*
X267335000Y-58547000D02*
X262001000Y-58547000D01*
X267335000Y-58547000D02*
X272669000Y-58547000D01*
X248031000Y-58547000D02*
X248031000Y-59690000D01*
X251079000Y-58547000D02*
X251079000Y-59690000D01*
X254889000Y-59690000D02*
X254889000Y-63373000D01*
X254889000Y-63373000D02*
X244221000Y-63373000D01*
X244221000Y-63373000D02*
X244221000Y-59690000D01*
X254889000Y-58547000D02*
X254889000Y-59690000D01*
X254889000Y-59690000D02*
X244221000Y-59690000D01*
X244221000Y-59690000D02*
X244221000Y-58547000D01*
X249555000Y-58547000D02*
X244221000Y-58547000D01*
X249555000Y-58547000D02*
X254889000Y-58547000D01*
X229616000Y-58547000D02*
X229616000Y-59690000D01*
X232664000Y-58547000D02*
X232664000Y-59690000D01*
X236474000Y-59690000D02*
X236474000Y-63373000D01*
X236474000Y-63373000D02*
X225806000Y-63373000D01*
X225806000Y-63373000D02*
X225806000Y-59690000D01*
X236474000Y-58547000D02*
X236474000Y-59690000D01*
X236474000Y-59690000D02*
X225806000Y-59690000D01*
X225806000Y-59690000D02*
X225806000Y-58547000D01*
X231140000Y-58547000D02*
X225806000Y-58547000D01*
X231140000Y-58547000D02*
X236474000Y-58547000D01*
X211836000Y-58547000D02*
X211836000Y-59690000D01*
X214884000Y-58547000D02*
X214884000Y-59690000D01*
X218694000Y-59690000D02*
X218694000Y-63373000D01*
X218694000Y-63373000D02*
X208026000Y-63373000D01*
X208026000Y-63373000D02*
X208026000Y-59690000D01*
X218694000Y-58547000D02*
X218694000Y-59690000D01*
X218694000Y-59690000D02*
X208026000Y-59690000D01*
X208026000Y-59690000D02*
X208026000Y-58547000D01*
X213360000Y-58547000D02*
X208026000Y-58547000D01*
X213360000Y-58547000D02*
X218694000Y-58547000D01*
X271010000Y-75955000D02*
X271010000Y-74685000D01*
X263660000Y-75955000D02*
X263660000Y-74685000D01*
X263660000Y-66285000D02*
X263660000Y-67555000D01*
X271010000Y-66285000D02*
X271010000Y-67555000D01*
X271010000Y-75955000D02*
X263660000Y-75955000D01*
X271010000Y-66285000D02*
X263660000Y-66285000D01*
X271010000Y-74685000D02*
X271945000Y-74685000D01*
X234815000Y-75955000D02*
X234815000Y-74685000D01*
X227465000Y-75955000D02*
X227465000Y-74685000D01*
X227465000Y-66285000D02*
X227465000Y-67555000D01*
X234815000Y-66285000D02*
X234815000Y-67555000D01*
X234815000Y-75955000D02*
X227465000Y-75955000D01*
X234815000Y-66285000D02*
X227465000Y-66285000D01*
X234815000Y-74685000D02*
X235750000Y-74685000D01*
X217035000Y-75955000D02*
X217035000Y-74685000D01*
X209685000Y-75955000D02*
X209685000Y-74685000D01*
X209685000Y-66285000D02*
X209685000Y-67555000D01*
X217035000Y-66285000D02*
X217035000Y-67555000D01*
X217035000Y-75955000D02*
X209685000Y-75955000D01*
X217035000Y-66285000D02*
X209685000Y-66285000D01*
X217035000Y-74685000D02*
X217970000Y-74685000D01*
X265430000Y-80010000D02*
X257810000Y-80010000D01*
X265430000Y-82550000D02*
X257810000Y-82550000D01*
X268250000Y-82830000D02*
X266700000Y-82830000D01*
X257810000Y-80010000D02*
X257810000Y-82550000D01*
X265430000Y-82550000D02*
X265430000Y-80010000D01*
X266700000Y-79730000D02*
X268250000Y-79730000D01*
X268250000Y-79730000D02*
X268250000Y-82830000D01*
X275590000Y-90170000D02*
X275590000Y-92710000D01*
X275870000Y-87350000D02*
X275870000Y-88900000D01*
X275590000Y-90170000D02*
X273050000Y-90170000D01*
X272770000Y-88900000D02*
X272770000Y-87350000D01*
X272770000Y-87350000D02*
X275870000Y-87350000D01*
X273050000Y-90170000D02*
X273050000Y-92710000D01*
X273050000Y-92710000D02*
X275590000Y-92710000D01*
D12*
X235585000Y-144780000D02*
X235585000Y-141732000D01*
X235585000Y-141732000D02*
X212725000Y-141732000D01*
X212725000Y-141732000D02*
X212725000Y-144780000D01*
X212725000Y-149860000D02*
X212725000Y-152908000D01*
X212725000Y-152908000D02*
X235585000Y-152908000D01*
X235585000Y-152908000D02*
X235585000Y-149860000D01*
X212725000Y-146050000D02*
X212725000Y-146050000D01*
X235585000Y-144780000D02*
X235585000Y-149860000D01*
X212725000Y-149860000D02*
X212725000Y-144780000D01*
X235585000Y-108585000D02*
X235585000Y-105537000D01*
X235585000Y-105537000D02*
X212725000Y-105537000D01*
X212725000Y-105537000D02*
X212725000Y-108585000D01*
X212725000Y-113665000D02*
X212725000Y-116713000D01*
X212725000Y-116713000D02*
X235585000Y-116713000D01*
X235585000Y-116713000D02*
X235585000Y-113665000D01*
X212725000Y-109855000D02*
X212725000Y-109855000D01*
X235585000Y-108585000D02*
X235585000Y-113665000D01*
X212725000Y-113665000D02*
X212725000Y-108585000D01*
D11*
X205105000Y-73660000D02*
X205105000Y-68580000D01*
X205105000Y-68580000D02*
X207645000Y-68580000D01*
X207645000Y-68580000D02*
X207645000Y-73660000D01*
X207645000Y-73660000D02*
X205105000Y-73660000D01*
X206375000Y-73660000D02*
X206375000Y-74930000D01*
X206375000Y-68580000D02*
X206375000Y-67310000D01*
X259080000Y-73660000D02*
X259080000Y-68580000D01*
X259080000Y-68580000D02*
X261620000Y-68580000D01*
X261620000Y-68580000D02*
X261620000Y-73660000D01*
X261620000Y-73660000D02*
X259080000Y-73660000D01*
X260350000Y-73660000D02*
X260350000Y-74930000D01*
X260350000Y-68580000D02*
X260350000Y-67310000D01*
X271780000Y-91320000D02*
X269240000Y-91320000D01*
X269240000Y-91320000D02*
X269240000Y-101480000D01*
X269240000Y-101480000D02*
X271780000Y-101480000D01*
X271780000Y-101480000D02*
X271780000Y-91320000D01*
X270510000Y-102630000D02*
X270510000Y-101480000D01*
X270510000Y-90170000D02*
X270510000Y-91320000D01*
X226695000Y-82550000D02*
X231775000Y-82550000D01*
X231775000Y-82550000D02*
X231775000Y-85090000D01*
X231775000Y-85090000D02*
X226695000Y-85090000D01*
X226695000Y-85090000D02*
X226695000Y-82550000D01*
X226695000Y-83820000D02*
X225425000Y-83820000D01*
X231775000Y-83820000D02*
X233045000Y-83820000D01*
X226695000Y-88900000D02*
X231775000Y-88900000D01*
X231775000Y-88900000D02*
X231775000Y-91440000D01*
X231775000Y-91440000D02*
X226695000Y-91440000D01*
X226695000Y-91440000D02*
X226695000Y-88900000D01*
X226695000Y-90170000D02*
X225425000Y-90170000D01*
X231775000Y-90170000D02*
X233045000Y-90170000D01*
X226695000Y-95250000D02*
X231775000Y-95250000D01*
X231775000Y-95250000D02*
X231775000Y-97790000D01*
X231775000Y-97790000D02*
X226695000Y-97790000D01*
X226695000Y-97790000D02*
X226695000Y-95250000D01*
X226695000Y-96520000D02*
X225425000Y-96520000D01*
X231775000Y-96520000D02*
X233045000Y-96520000D01*
X226695000Y-101600000D02*
X231775000Y-101600000D01*
X231775000Y-101600000D02*
X231775000Y-104140000D01*
X231775000Y-104140000D02*
X226695000Y-104140000D01*
X226695000Y-104140000D02*
X226695000Y-101600000D01*
X226695000Y-102870000D02*
X225425000Y-102870000D01*
X231775000Y-102870000D02*
X233045000Y-102870000D01*
X226695000Y-79375000D02*
X231775000Y-79375000D01*
X231775000Y-79375000D02*
X231775000Y-81915000D01*
X231775000Y-81915000D02*
X226695000Y-81915000D01*
X226695000Y-81915000D02*
X226695000Y-79375000D01*
X226695000Y-80645000D02*
X225425000Y-80645000D01*
X231775000Y-80645000D02*
X233045000Y-80645000D01*
X226695000Y-85725000D02*
X231775000Y-85725000D01*
X231775000Y-85725000D02*
X231775000Y-88265000D01*
X231775000Y-88265000D02*
X226695000Y-88265000D01*
X226695000Y-88265000D02*
X226695000Y-85725000D01*
X226695000Y-86995000D02*
X225425000Y-86995000D01*
X231775000Y-86995000D02*
X233045000Y-86995000D01*
X226695000Y-92075000D02*
X231775000Y-92075000D01*
X231775000Y-92075000D02*
X231775000Y-94615000D01*
X231775000Y-94615000D02*
X226695000Y-94615000D01*
X226695000Y-94615000D02*
X226695000Y-92075000D01*
X226695000Y-93345000D02*
X225425000Y-93345000D01*
X231775000Y-93345000D02*
X233045000Y-93345000D01*
X226695000Y-98425000D02*
X231775000Y-98425000D01*
X231775000Y-98425000D02*
X231775000Y-100965000D01*
X231775000Y-100965000D02*
X226695000Y-100965000D01*
X226695000Y-100965000D02*
X226695000Y-98425000D01*
X226695000Y-99695000D02*
X225425000Y-99695000D01*
X231775000Y-99695000D02*
X233045000Y-99695000D01*
X219075000Y-73660000D02*
X219075000Y-68580000D01*
X219075000Y-68580000D02*
X221615000Y-68580000D01*
X221615000Y-68580000D02*
X221615000Y-73660000D01*
X221615000Y-73660000D02*
X219075000Y-73660000D01*
X220345000Y-73660000D02*
X220345000Y-74930000D01*
X220345000Y-68580000D02*
X220345000Y-67310000D01*
X255270000Y-73660000D02*
X255270000Y-68580000D01*
X255270000Y-68580000D02*
X257810000Y-68580000D01*
X257810000Y-68580000D02*
X257810000Y-73660000D01*
X257810000Y-73660000D02*
X255270000Y-73660000D01*
X256540000Y-73660000D02*
X256540000Y-74930000D01*
X256540000Y-68580000D02*
X256540000Y-67310000D01*
X273050000Y-73660000D02*
X273050000Y-68580000D01*
X273050000Y-68580000D02*
X275590000Y-68580000D01*
X275590000Y-68580000D02*
X275590000Y-73660000D01*
X275590000Y-73660000D02*
X273050000Y-73660000D01*
X274320000Y-73660000D02*
X274320000Y-74930000D01*
X274320000Y-68580000D02*
X274320000Y-67310000D01*
X249007381Y-72358095D02*
X249816905Y-72358095D01*
X249912143Y-72310476D01*
X249959762Y-72262857D01*
X250007381Y-72167619D01*
X250007381Y-71977142D01*
X249959762Y-71881904D01*
X249912143Y-71834285D01*
X249816905Y-71786666D01*
X249007381Y-71786666D01*
X250007381Y-70786666D02*
X250007381Y-71358095D01*
X250007381Y-71072381D02*
X249007381Y-71072381D01*
X249150238Y-71167619D01*
X249245476Y-71262857D01*
X249293095Y-71358095D01*
X249102619Y-70405714D02*
X249055000Y-70358095D01*
X249007381Y-70262857D01*
X249007381Y-70024761D01*
X249055000Y-69929523D01*
X249102619Y-69881904D01*
X249197857Y-69834285D01*
X249293095Y-69834285D01*
X249435952Y-69881904D01*
X250007381Y-70453333D01*
X250007381Y-69834285D01*
X238577381Y-72524762D02*
X238101190Y-72858096D01*
X238577381Y-73096191D02*
X237577381Y-73096191D01*
X237577381Y-72715238D01*
X237625000Y-72620000D01*
X237672619Y-72572381D01*
X237767857Y-72524762D01*
X237910714Y-72524762D01*
X238005952Y-72572381D01*
X238053571Y-72620000D01*
X238101190Y-72715238D01*
X238101190Y-73096191D01*
X238672619Y-72334286D02*
X238672619Y-71572381D01*
X237577381Y-71429524D02*
X237577381Y-70810476D01*
X237958333Y-71143810D01*
X237958333Y-71000952D01*
X238005952Y-70905714D01*
X238053571Y-70858095D01*
X238148810Y-70810476D01*
X238386905Y-70810476D01*
X238482143Y-70858095D01*
X238529762Y-70905714D01*
X238577381Y-71000952D01*
X238577381Y-71286667D01*
X238529762Y-71381905D01*
X238482143Y-71429524D01*
X238672619Y-70620000D02*
X238672619Y-69858095D01*
X237672619Y-69667619D02*
X237625000Y-69620000D01*
X237577381Y-69524762D01*
X237577381Y-69286666D01*
X237625000Y-69191428D01*
X237672619Y-69143809D01*
X237767857Y-69096190D01*
X237863095Y-69096190D01*
X238005952Y-69143809D01*
X238577381Y-69715238D01*
X238577381Y-69096190D01*
X243022381Y-72524762D02*
X242546190Y-72858096D01*
X243022381Y-73096191D02*
X242022381Y-73096191D01*
X242022381Y-72715238D01*
X242070000Y-72620000D01*
X242117619Y-72572381D01*
X242212857Y-72524762D01*
X242355714Y-72524762D01*
X242450952Y-72572381D01*
X242498571Y-72620000D01*
X242546190Y-72715238D01*
X242546190Y-73096191D01*
X243117619Y-72334286D02*
X243117619Y-71572381D01*
X242355714Y-70905714D02*
X243022381Y-70905714D01*
X241974762Y-71143810D02*
X242689048Y-71381905D01*
X242689048Y-70762857D01*
X243117619Y-70620000D02*
X243117619Y-69858095D01*
X242022381Y-69715238D02*
X242022381Y-69096190D01*
X242403333Y-69429524D01*
X242403333Y-69286666D01*
X242450952Y-69191428D01*
X242498571Y-69143809D01*
X242593810Y-69096190D01*
X242831905Y-69096190D01*
X242927143Y-69143809D01*
X242974762Y-69191428D01*
X243022381Y-69286666D01*
X243022381Y-69572381D01*
X242974762Y-69667619D01*
X242927143Y-69715238D01*
X224607381Y-72524762D02*
X224131190Y-72858096D01*
X224607381Y-73096191D02*
X223607381Y-73096191D01*
X223607381Y-72715238D01*
X223655000Y-72620000D01*
X223702619Y-72572381D01*
X223797857Y-72524762D01*
X223940714Y-72524762D01*
X224035952Y-72572381D01*
X224083571Y-72620000D01*
X224131190Y-72715238D01*
X224131190Y-73096191D01*
X224702619Y-72334286D02*
X224702619Y-71572381D01*
X223940714Y-70905714D02*
X224607381Y-70905714D01*
X223559762Y-71143810D02*
X224274048Y-71381905D01*
X224274048Y-70762857D01*
X224702619Y-70620000D02*
X224702619Y-69858095D01*
X223702619Y-69667619D02*
X223655000Y-69620000D01*
X223607381Y-69524762D01*
X223607381Y-69286666D01*
X223655000Y-69191428D01*
X223702619Y-69143809D01*
X223797857Y-69096190D01*
X223893095Y-69096190D01*
X224035952Y-69143809D01*
X224607381Y-69715238D01*
X224607381Y-69096190D01*
D13*
X216961358Y-122609429D02*
X216961358Y-121085429D01*
X217614501Y-122609429D02*
X217124644Y-121738571D01*
X217614501Y-121085429D02*
X216961358Y-121956286D01*
X217995501Y-121085429D02*
X218703072Y-121085429D01*
X218322072Y-121666000D01*
X218485358Y-121666000D01*
X218594215Y-121738571D01*
X218648644Y-121811143D01*
X218703072Y-121956286D01*
X218703072Y-122319143D01*
X218648644Y-122464286D01*
X218594215Y-122536857D01*
X218485358Y-122609429D01*
X218158786Y-122609429D01*
X218049929Y-122536857D01*
X217995501Y-122464286D01*
D14*
D13*
X223102715Y-125149429D02*
X222721715Y-124423714D01*
X222449572Y-125149429D02*
X222449572Y-123625429D01*
X222885000Y-123625429D01*
X222993858Y-123698000D01*
X223048286Y-123770571D01*
X223102715Y-123915714D01*
X223102715Y-124133429D01*
X223048286Y-124278571D01*
X222993858Y-124351143D01*
X222885000Y-124423714D01*
X222449572Y-124423714D01*
X223592572Y-124351143D02*
X223973572Y-124351143D01*
X224136858Y-125149429D02*
X223592572Y-125149429D01*
X223592572Y-123625429D01*
X224136858Y-123625429D01*
X225171001Y-125149429D02*
X224626715Y-125149429D01*
X224626715Y-123625429D01*
X225497572Y-124714000D02*
X226041858Y-124714000D01*
X225388715Y-125149429D02*
X225769715Y-123625429D01*
X226150715Y-125149429D01*
X226749429Y-124423714D02*
X226749429Y-125149429D01*
X226368429Y-123625429D02*
X226749429Y-124423714D01*
X227130429Y-123625429D01*
X227239286Y-125294571D02*
X228110143Y-125294571D01*
X228327857Y-123770571D02*
X228382286Y-123698000D01*
X228491143Y-123625429D01*
X228763286Y-123625429D01*
X228872143Y-123698000D01*
X228926572Y-123770571D01*
X228981000Y-123915714D01*
X228981000Y-124060857D01*
X228926572Y-124278571D01*
X228273429Y-125149429D01*
X228981000Y-125149429D01*
X230124000Y-125149429D02*
X229743000Y-124423714D01*
X229470857Y-125149429D02*
X229470857Y-123625429D01*
X229906285Y-123625429D01*
X230015143Y-123698000D01*
X230069571Y-123770571D01*
X230124000Y-123915714D01*
X230124000Y-124133429D01*
X230069571Y-124278571D01*
X230015143Y-124351143D01*
X229906285Y-124423714D01*
X229470857Y-124423714D01*
X230450571Y-123625429D02*
X231103714Y-123625429D01*
X230777143Y-125149429D02*
X230777143Y-123625429D01*
D14*
D13*
X216961358Y-134674429D02*
X216961358Y-133150429D01*
X217614501Y-134674429D02*
X217124644Y-133803571D01*
X217614501Y-133150429D02*
X216961358Y-134021286D01*
X218049929Y-133295571D02*
X218104358Y-133223000D01*
X218213215Y-133150429D01*
X218485358Y-133150429D01*
X218594215Y-133223000D01*
X218648644Y-133295571D01*
X218703072Y-133440714D01*
X218703072Y-133585857D01*
X218648644Y-133803571D01*
X217995501Y-134674429D01*
X218703072Y-134674429D01*
D14*
D13*
X223102715Y-137214429D02*
X222721715Y-136488714D01*
X222449572Y-137214429D02*
X222449572Y-135690429D01*
X222885000Y-135690429D01*
X222993858Y-135763000D01*
X223048286Y-135835571D01*
X223102715Y-135980714D01*
X223102715Y-136198429D01*
X223048286Y-136343571D01*
X222993858Y-136416143D01*
X222885000Y-136488714D01*
X222449572Y-136488714D01*
X223592572Y-136416143D02*
X223973572Y-136416143D01*
X224136858Y-137214429D02*
X223592572Y-137214429D01*
X223592572Y-135690429D01*
X224136858Y-135690429D01*
X225171001Y-137214429D02*
X224626715Y-137214429D01*
X224626715Y-135690429D01*
X225497572Y-136779000D02*
X226041858Y-136779000D01*
X225388715Y-137214429D02*
X225769715Y-135690429D01*
X226150715Y-137214429D01*
X226749429Y-136488714D02*
X226749429Y-137214429D01*
X226368429Y-135690429D02*
X226749429Y-136488714D01*
X227130429Y-135690429D01*
X227239286Y-137359571D02*
X228110143Y-137359571D01*
X228327857Y-135835571D02*
X228382286Y-135763000D01*
X228491143Y-135690429D01*
X228763286Y-135690429D01*
X228872143Y-135763000D01*
X228926572Y-135835571D01*
X228981000Y-135980714D01*
X228981000Y-136125857D01*
X228926572Y-136343571D01*
X228273429Y-137214429D01*
X228981000Y-137214429D01*
X230124000Y-137214429D02*
X229743000Y-136488714D01*
X229470857Y-137214429D02*
X229470857Y-135690429D01*
X229906285Y-135690429D01*
X230015143Y-135763000D01*
X230069571Y-135835571D01*
X230124000Y-135980714D01*
X230124000Y-136198429D01*
X230069571Y-136343571D01*
X230015143Y-136416143D01*
X229906285Y-136488714D01*
X229470857Y-136488714D01*
X230450571Y-135690429D02*
X231103714Y-135690429D01*
X230777143Y-137214429D02*
X230777143Y-135690429D01*
D14*
D13*
X243894429Y-136098642D02*
X242370429Y-136098642D01*
X243894429Y-135445499D02*
X243023571Y-135935356D01*
X242370429Y-135445499D02*
X243241286Y-136098642D01*
X242370429Y-134411356D02*
X242370429Y-134955642D01*
X243096143Y-135010071D01*
X243023571Y-134955642D01*
X242951000Y-134846785D01*
X242951000Y-134574642D01*
X243023571Y-134465785D01*
X243096143Y-134411356D01*
X243241286Y-134356928D01*
X243604143Y-134356928D01*
X243749286Y-134411356D01*
X243821857Y-134465785D01*
X243894429Y-134574642D01*
X243894429Y-134846785D01*
X243821857Y-134955642D01*
X243749286Y-135010071D01*
D14*
D13*
X241354429Y-147737285D02*
X240628714Y-148118285D01*
X241354429Y-148390428D02*
X239830429Y-148390428D01*
X239830429Y-147955000D01*
X239903000Y-147846142D01*
X239975571Y-147791714D01*
X240120714Y-147737285D01*
X240338429Y-147737285D01*
X240483571Y-147791714D01*
X240556143Y-147846142D01*
X240628714Y-147955000D01*
X240628714Y-148390428D01*
X240556143Y-147247428D02*
X240556143Y-146866428D01*
X241354429Y-146703142D02*
X241354429Y-147247428D01*
X239830429Y-147247428D01*
X239830429Y-146703142D01*
X241354429Y-145668999D02*
X241354429Y-146213285D01*
X239830429Y-146213285D01*
X240919000Y-145342428D02*
X240919000Y-144798142D01*
X241354429Y-145451285D02*
X239830429Y-145070285D01*
X241354429Y-144689285D01*
X240628714Y-144090571D02*
X241354429Y-144090571D01*
X239830429Y-144471571D02*
X240628714Y-144090571D01*
X239830429Y-143709571D01*
X241499571Y-143600714D02*
X241499571Y-142729857D01*
X239975571Y-142512143D02*
X239903000Y-142457714D01*
X239830429Y-142348857D01*
X239830429Y-142076714D01*
X239903000Y-141967857D01*
X239975571Y-141913428D01*
X240120714Y-141859000D01*
X240265857Y-141859000D01*
X240483571Y-141913428D01*
X241354429Y-142566571D01*
X241354429Y-141859000D01*
X241354429Y-140716000D02*
X240628714Y-141097000D01*
X241354429Y-141369143D02*
X239830429Y-141369143D01*
X239830429Y-140933715D01*
X239903000Y-140824857D01*
X239975571Y-140770429D01*
X240120714Y-140716000D01*
X240338429Y-140716000D01*
X240483571Y-140770429D01*
X240556143Y-140824857D01*
X240628714Y-140933715D01*
X240628714Y-141369143D01*
X239830429Y-140389429D02*
X239830429Y-139736286D01*
X241354429Y-140062857D02*
X239830429Y-140062857D01*
D14*
D11*
X254722381Y-132206905D02*
X255531905Y-132206905D01*
X255627143Y-132159286D01*
X255674762Y-132111667D01*
X255722381Y-132016429D01*
X255722381Y-131825952D01*
X255674762Y-131730714D01*
X255627143Y-131683095D01*
X255531905Y-131635476D01*
X254722381Y-131635476D01*
X255722381Y-130635476D02*
X255722381Y-131206905D01*
X255722381Y-130921191D02*
X254722381Y-130921191D01*
X254865238Y-131016429D01*
X254960476Y-131111667D01*
X255008095Y-131206905D01*
X254722381Y-106171905D02*
X255531905Y-106171905D01*
X255627143Y-106124286D01*
X255674762Y-106076667D01*
X255722381Y-105981429D01*
X255722381Y-105790952D01*
X255674762Y-105695714D01*
X255627143Y-105648095D01*
X255531905Y-105600476D01*
X254722381Y-105600476D01*
X254817619Y-105171905D02*
X254770000Y-105124286D01*
X254722381Y-105029048D01*
X254722381Y-104790952D01*
X254770000Y-104695714D01*
X254817619Y-104648095D01*
X254912857Y-104600476D01*
X255008095Y-104600476D01*
X255150952Y-104648095D01*
X255722381Y-105219524D01*
X255722381Y-104600476D01*
X277312381Y-121864286D02*
X276312381Y-121864286D01*
X276312381Y-121483333D01*
X276360000Y-121388095D01*
X276407619Y-121340476D01*
X276502857Y-121292857D01*
X276645714Y-121292857D01*
X276740952Y-121340476D01*
X276788571Y-121388095D01*
X276836190Y-121483333D01*
X276836190Y-121864286D01*
X277312381Y-120340476D02*
X277312381Y-120911905D01*
X277312381Y-120626191D02*
X276312381Y-120626191D01*
X276455238Y-120721429D01*
X276550476Y-120816667D01*
X276598095Y-120911905D01*
X277312381Y-119388095D02*
X277312381Y-119959524D01*
X277312381Y-119673810D02*
X276312381Y-119673810D01*
X276455238Y-119769048D01*
X276550476Y-119864286D01*
X276598095Y-119959524D01*
X272232381Y-45823095D02*
X271232381Y-45823095D01*
X271232381Y-45585000D01*
X271280000Y-45442142D01*
X271375238Y-45346904D01*
X271470476Y-45299285D01*
X271660952Y-45251666D01*
X271803810Y-45251666D01*
X271994286Y-45299285D01*
X272089524Y-45346904D01*
X272184762Y-45442142D01*
X272232381Y-45585000D01*
X272232381Y-45823095D01*
X272232381Y-44299285D02*
X272232381Y-44870714D01*
X272232381Y-44585000D02*
X271232381Y-44585000D01*
X271375238Y-44680238D01*
X271470476Y-44775476D01*
X271518095Y-44870714D01*
X254452381Y-45823095D02*
X253452381Y-45823095D01*
X253452381Y-45585000D01*
X253500000Y-45442142D01*
X253595238Y-45346904D01*
X253690476Y-45299285D01*
X253880952Y-45251666D01*
X254023810Y-45251666D01*
X254214286Y-45299285D01*
X254309524Y-45346904D01*
X254404762Y-45442142D01*
X254452381Y-45585000D01*
X254452381Y-45823095D01*
X253547619Y-44870714D02*
X253500000Y-44823095D01*
X253452381Y-44727857D01*
X253452381Y-44489761D01*
X253500000Y-44394523D01*
X253547619Y-44346904D01*
X253642857Y-44299285D01*
X253738095Y-44299285D01*
X253880952Y-44346904D01*
X254452381Y-44918333D01*
X254452381Y-44299285D01*
X236037381Y-45823095D02*
X235037381Y-45823095D01*
X235037381Y-45585000D01*
X235085000Y-45442142D01*
X235180238Y-45346904D01*
X235275476Y-45299285D01*
X235465952Y-45251666D01*
X235608810Y-45251666D01*
X235799286Y-45299285D01*
X235894524Y-45346904D01*
X235989762Y-45442142D01*
X236037381Y-45585000D01*
X236037381Y-45823095D01*
X235037381Y-44918333D02*
X235037381Y-44299285D01*
X235418333Y-44632619D01*
X235418333Y-44489761D01*
X235465952Y-44394523D01*
X235513571Y-44346904D01*
X235608810Y-44299285D01*
X235846905Y-44299285D01*
X235942143Y-44346904D01*
X235989762Y-44394523D01*
X236037381Y-44489761D01*
X236037381Y-44775476D01*
X235989762Y-44870714D01*
X235942143Y-44918333D01*
X218257381Y-45823095D02*
X217257381Y-45823095D01*
X217257381Y-45585000D01*
X217305000Y-45442142D01*
X217400238Y-45346904D01*
X217495476Y-45299285D01*
X217685952Y-45251666D01*
X217828810Y-45251666D01*
X218019286Y-45299285D01*
X218114524Y-45346904D01*
X218209762Y-45442142D01*
X218257381Y-45585000D01*
X218257381Y-45823095D01*
X217590714Y-44394523D02*
X218257381Y-44394523D01*
X217209762Y-44632619D02*
X217924048Y-44870714D01*
X217924048Y-44251666D01*
X277312381Y-84018095D02*
X276312381Y-84018095D01*
X276312381Y-83780000D01*
X276360000Y-83637142D01*
X276455238Y-83541904D01*
X276550476Y-83494285D01*
X276740952Y-83446666D01*
X276883810Y-83446666D01*
X277074286Y-83494285D01*
X277169524Y-83541904D01*
X277264762Y-83637142D01*
X277312381Y-83780000D01*
X277312381Y-84018095D01*
X277407619Y-83256190D02*
X277407619Y-82494285D01*
X277312381Y-81684761D02*
X276836190Y-82018095D01*
X277312381Y-82256190D02*
X276312381Y-82256190D01*
X276312381Y-81875237D01*
X276360000Y-81779999D01*
X276407619Y-81732380D01*
X276502857Y-81684761D01*
X276645714Y-81684761D01*
X276740952Y-81732380D01*
X276788571Y-81779999D01*
X276836190Y-81875237D01*
X276836190Y-82256190D01*
X277312381Y-81256190D02*
X276312381Y-81256190D01*
X276312381Y-80875237D01*
X276360000Y-80779999D01*
X276407619Y-80732380D01*
X276502857Y-80684761D01*
X276645714Y-80684761D01*
X276740952Y-80732380D01*
X276788571Y-80779999D01*
X276836190Y-80875237D01*
X276836190Y-81256190D01*
X277312381Y-80256190D02*
X276312381Y-80256190D01*
X277407619Y-80018095D02*
X277407619Y-79256190D01*
X277312381Y-78494285D02*
X277312381Y-79065714D01*
X277312381Y-78780000D02*
X276312381Y-78780000D01*
X276455238Y-78875238D01*
X276550476Y-78970476D01*
X276598095Y-79065714D01*
X269613095Y-83637381D02*
X269613095Y-82637381D01*
X270184524Y-83637381D02*
X269755952Y-83065952D01*
X270184524Y-82637381D02*
X269613095Y-83208810D01*
X262977381Y-88598333D02*
X263691667Y-88598333D01*
X263834524Y-88645953D01*
X263929762Y-88741191D01*
X263977381Y-88884048D01*
X263977381Y-88979286D01*
X263977381Y-87598333D02*
X263977381Y-88169762D01*
X263977381Y-87884048D02*
X262977381Y-87884048D01*
X263120238Y-87979286D01*
X263215476Y-88074524D01*
X263263095Y-88169762D01*
X277312381Y-100179048D02*
X276312381Y-100179048D01*
X277312381Y-99607619D02*
X276740952Y-100036191D01*
X276312381Y-99607619D02*
X276883810Y-100179048D01*
X277407619Y-99417143D02*
X277407619Y-98655238D01*
X277312381Y-97893333D02*
X277312381Y-98464762D01*
X277312381Y-98179048D02*
X276312381Y-98179048D01*
X276455238Y-98274286D01*
X276550476Y-98369524D01*
X276598095Y-98464762D01*
X277312381Y-110339048D02*
X276312381Y-110339048D01*
X277312381Y-109767619D02*
X276740952Y-110196191D01*
X276312381Y-109767619D02*
X276883810Y-110339048D01*
X277407619Y-109577143D02*
X277407619Y-108815238D01*
X276407619Y-108624762D02*
X276360000Y-108577143D01*
X276312381Y-108481905D01*
X276312381Y-108243809D01*
X276360000Y-108148571D01*
X276407619Y-108100952D01*
X276502857Y-108053333D01*
X276598095Y-108053333D01*
X276740952Y-108100952D01*
X277312381Y-108672381D01*
X277312381Y-108053333D01*
X262707381Y-56300476D02*
X261707381Y-56300476D01*
X262707381Y-55729047D02*
X262135952Y-56157619D01*
X261707381Y-55729047D02*
X262278810Y-56300476D01*
X262802619Y-55538571D02*
X262802619Y-54776666D01*
X262707381Y-54538571D02*
X261707381Y-54538571D01*
X262421667Y-54205237D01*
X261707381Y-53871904D01*
X262707381Y-53871904D01*
X262707381Y-52871904D02*
X262707381Y-53443333D01*
X262707381Y-53157619D02*
X261707381Y-53157619D01*
X261850238Y-53252857D01*
X261945476Y-53348095D01*
X261993095Y-53443333D01*
X244927381Y-56300476D02*
X243927381Y-56300476D01*
X244927381Y-55729047D02*
X244355952Y-56157619D01*
X243927381Y-55729047D02*
X244498810Y-56300476D01*
X245022619Y-55538571D02*
X245022619Y-54776666D01*
X244927381Y-54538571D02*
X243927381Y-54538571D01*
X244641667Y-54205237D01*
X243927381Y-53871904D01*
X244927381Y-53871904D01*
X244022619Y-53443333D02*
X243975000Y-53395714D01*
X243927381Y-53300476D01*
X243927381Y-53062380D01*
X243975000Y-52967142D01*
X244022619Y-52919523D01*
X244117857Y-52871904D01*
X244213095Y-52871904D01*
X244355952Y-52919523D01*
X244927381Y-53490952D01*
X244927381Y-52871904D01*
X226512381Y-56300476D02*
X225512381Y-56300476D01*
X226512381Y-55729047D02*
X225940952Y-56157619D01*
X225512381Y-55729047D02*
X226083810Y-56300476D01*
X226607619Y-55538571D02*
X226607619Y-54776666D01*
X226512381Y-54538571D02*
X225512381Y-54538571D01*
X226226667Y-54205237D01*
X225512381Y-53871904D01*
X226512381Y-53871904D01*
X225512381Y-53490952D02*
X225512381Y-52871904D01*
X225893333Y-53205238D01*
X225893333Y-53062380D01*
X225940952Y-52967142D01*
X225988571Y-52919523D01*
X226083810Y-52871904D01*
X226321905Y-52871904D01*
X226417143Y-52919523D01*
X226464762Y-52967142D01*
X226512381Y-53062380D01*
X226512381Y-53348095D01*
X226464762Y-53443333D01*
X226417143Y-53490952D01*
X208732381Y-56300476D02*
X207732381Y-56300476D01*
X208732381Y-55729047D02*
X208160952Y-56157619D01*
X207732381Y-55729047D02*
X208303810Y-56300476D01*
X208827619Y-55538571D02*
X208827619Y-54776666D01*
X208732381Y-54538571D02*
X207732381Y-54538571D01*
X208446667Y-54205237D01*
X207732381Y-53871904D01*
X208732381Y-53871904D01*
X208065714Y-52967142D02*
X208732381Y-52967142D01*
X207684762Y-53205238D02*
X208399048Y-53443333D01*
X208399048Y-52824285D01*
X204287381Y-147423095D02*
X203287381Y-147423095D01*
X203287381Y-147042142D01*
X203335000Y-146946904D01*
X203382619Y-146899285D01*
X203477857Y-146851666D01*
X203620714Y-146851666D01*
X203715952Y-146899285D01*
X203763571Y-146946904D01*
X203811190Y-147042142D01*
X203811190Y-147423095D01*
X204287381Y-145899285D02*
X204287381Y-146470714D01*
X204287381Y-146185000D02*
X203287381Y-146185000D01*
X203430238Y-146280238D01*
X203525476Y-146375476D01*
X203573095Y-146470714D01*
X204287381Y-135358095D02*
X203287381Y-135358095D01*
X203287381Y-134977142D01*
X203335000Y-134881904D01*
X203382619Y-134834285D01*
X203477857Y-134786666D01*
X203620714Y-134786666D01*
X203715952Y-134834285D01*
X203763571Y-134881904D01*
X203811190Y-134977142D01*
X203811190Y-135358095D01*
X203382619Y-134405714D02*
X203335000Y-134358095D01*
X203287381Y-134262857D01*
X203287381Y-134024761D01*
X203335000Y-133929523D01*
X203382619Y-133881904D01*
X203477857Y-133834285D01*
X203573095Y-133834285D01*
X203715952Y-133881904D01*
X204287381Y-134453333D01*
X204287381Y-133834285D01*
X204287381Y-123928095D02*
X203287381Y-123928095D01*
X203287381Y-123547142D01*
X203335000Y-123451904D01*
X203382619Y-123404285D01*
X203477857Y-123356666D01*
X203620714Y-123356666D01*
X203715952Y-123404285D01*
X203763571Y-123451904D01*
X203811190Y-123547142D01*
X203811190Y-123928095D01*
X203287381Y-123023333D02*
X203287381Y-122404285D01*
X203668333Y-122737619D01*
X203668333Y-122594761D01*
X203715952Y-122499523D01*
X203763571Y-122451904D01*
X203858810Y-122404285D01*
X204096905Y-122404285D01*
X204192143Y-122451904D01*
X204239762Y-122499523D01*
X204287381Y-122594761D01*
X204287381Y-122880476D01*
X204239762Y-122975714D01*
X204192143Y-123023333D01*
X204287381Y-111863095D02*
X203287381Y-111863095D01*
X203287381Y-111482142D01*
X203335000Y-111386904D01*
X203382619Y-111339285D01*
X203477857Y-111291666D01*
X203620714Y-111291666D01*
X203715952Y-111339285D01*
X203763571Y-111386904D01*
X203811190Y-111482142D01*
X203811190Y-111863095D01*
X203620714Y-110434523D02*
X204287381Y-110434523D01*
X203239762Y-110672619D02*
X203954048Y-110910714D01*
X203954048Y-110291666D01*
X250499762Y-145232381D02*
X250499762Y-144232381D01*
X250880715Y-144232381D01*
X250975953Y-144280000D01*
X251023572Y-144327619D01*
X251071191Y-144422857D01*
X251071191Y-144565714D01*
X251023572Y-144660952D01*
X250975953Y-144708571D01*
X250880715Y-144756190D01*
X250499762Y-144756190D01*
X251975953Y-144232381D02*
X251499762Y-144232381D01*
X251452143Y-144708571D01*
X251499762Y-144660952D01*
X251595000Y-144613333D01*
X251833096Y-144613333D01*
X251928334Y-144660952D01*
X251975953Y-144708571D01*
X252023572Y-144803810D01*
X252023572Y-145041905D01*
X251975953Y-145137143D01*
X251928334Y-145184762D01*
X251833096Y-145232381D01*
X251595000Y-145232381D01*
X251499762Y-145184762D01*
X251452143Y-145137143D01*
X252214048Y-145327619D02*
X252975953Y-145327619D01*
X253737858Y-145232381D02*
X253166429Y-145232381D01*
X253452143Y-145232381D02*
X253452143Y-144232381D01*
X253356905Y-144375238D01*
X253261667Y-144470476D01*
X253166429Y-144518095D01*
X238434762Y-121102381D02*
X238434762Y-120102381D01*
X238815715Y-120102381D01*
X238910953Y-120150000D01*
X238958572Y-120197619D01*
X239006191Y-120292857D01*
X239006191Y-120435714D01*
X238958572Y-120530952D01*
X238910953Y-120578571D01*
X238815715Y-120626190D01*
X238434762Y-120626190D01*
X239910953Y-120102381D02*
X239434762Y-120102381D01*
X239387143Y-120578571D01*
X239434762Y-120530952D01*
X239530000Y-120483333D01*
X239768096Y-120483333D01*
X239863334Y-120530952D01*
X239910953Y-120578571D01*
X239958572Y-120673810D01*
X239958572Y-120911905D01*
X239910953Y-121007143D01*
X239863334Y-121054762D01*
X239768096Y-121102381D01*
X239530000Y-121102381D01*
X239434762Y-121054762D01*
X239387143Y-121007143D01*
X240149048Y-121197619D02*
X240910953Y-121197619D01*
X241101429Y-120197619D02*
X241149048Y-120150000D01*
X241244286Y-120102381D01*
X241482382Y-120102381D01*
X241577620Y-120150000D01*
X241625239Y-120197619D01*
X241672858Y-120292857D01*
X241672858Y-120388095D01*
X241625239Y-120530952D01*
X241053810Y-121102381D01*
X241672858Y-121102381D01*
X262707381Y-41759048D02*
X261707381Y-41759048D01*
X261707381Y-41378095D01*
X261755000Y-41282857D01*
X261802619Y-41235238D01*
X261897857Y-41187619D01*
X262040714Y-41187619D01*
X262135952Y-41235238D01*
X262183571Y-41282857D01*
X262231190Y-41378095D01*
X262231190Y-41759048D01*
X262802619Y-40997143D02*
X262802619Y-40235238D01*
X262707381Y-39473333D02*
X262707381Y-40044762D01*
X262707381Y-39759048D02*
X261707381Y-39759048D01*
X261850238Y-39854286D01*
X261945476Y-39949524D01*
X261993095Y-40044762D01*
X244927381Y-41759048D02*
X243927381Y-41759048D01*
X243927381Y-41378095D01*
X243975000Y-41282857D01*
X244022619Y-41235238D01*
X244117857Y-41187619D01*
X244260714Y-41187619D01*
X244355952Y-41235238D01*
X244403571Y-41282857D01*
X244451190Y-41378095D01*
X244451190Y-41759048D01*
X245022619Y-40997143D02*
X245022619Y-40235238D01*
X244022619Y-40044762D02*
X243975000Y-39997143D01*
X243927381Y-39901905D01*
X243927381Y-39663809D01*
X243975000Y-39568571D01*
X244022619Y-39520952D01*
X244117857Y-39473333D01*
X244213095Y-39473333D01*
X244355952Y-39520952D01*
X244927381Y-40092381D01*
X244927381Y-39473333D01*
X226512381Y-41759048D02*
X225512381Y-41759048D01*
X225512381Y-41378095D01*
X225560000Y-41282857D01*
X225607619Y-41235238D01*
X225702857Y-41187619D01*
X225845714Y-41187619D01*
X225940952Y-41235238D01*
X225988571Y-41282857D01*
X226036190Y-41378095D01*
X226036190Y-41759048D01*
X226607619Y-40997143D02*
X226607619Y-40235238D01*
X225512381Y-40092381D02*
X225512381Y-39473333D01*
X225893333Y-39806667D01*
X225893333Y-39663809D01*
X225940952Y-39568571D01*
X225988571Y-39520952D01*
X226083810Y-39473333D01*
X226321905Y-39473333D01*
X226417143Y-39520952D01*
X226464762Y-39568571D01*
X226512381Y-39663809D01*
X226512381Y-39949524D01*
X226464762Y-40044762D01*
X226417143Y-40092381D01*
X208732381Y-41759048D02*
X207732381Y-41759048D01*
X207732381Y-41378095D01*
X207780000Y-41282857D01*
X207827619Y-41235238D01*
X207922857Y-41187619D01*
X208065714Y-41187619D01*
X208160952Y-41235238D01*
X208208571Y-41282857D01*
X208256190Y-41378095D01*
X208256190Y-41759048D01*
X208827619Y-40997143D02*
X208827619Y-40235238D01*
X208065714Y-39568571D02*
X208732381Y-39568571D01*
X207684762Y-39806667D02*
X208399048Y-40044762D01*
X208399048Y-39425714D01*
X244292381Y-101877619D02*
X243292381Y-101877619D01*
X243292381Y-101496666D01*
X243340000Y-101401428D01*
X243387619Y-101353809D01*
X243482857Y-101306190D01*
X243625714Y-101306190D01*
X243720952Y-101353809D01*
X243768571Y-101401428D01*
X243816190Y-101496666D01*
X243816190Y-101877619D01*
X244387619Y-101115714D02*
X244387619Y-100353809D01*
X244006667Y-100163333D02*
X244006667Y-99687142D01*
X244292381Y-100258571D02*
X243292381Y-99925238D01*
X244292381Y-99591904D01*
X244292381Y-98734761D02*
X244292381Y-99306190D01*
X244292381Y-99020476D02*
X243292381Y-99020476D01*
X243435238Y-99115714D01*
X243530476Y-99210952D01*
X243578095Y-99306190D01*
X204287381Y-101321905D02*
X203287381Y-101321905D01*
X203287381Y-100940952D01*
X203335000Y-100845714D01*
X203382619Y-100798095D01*
X203477857Y-100750476D01*
X203620714Y-100750476D01*
X203715952Y-100798095D01*
X203763571Y-100845714D01*
X203811190Y-100940952D01*
X203811190Y-101321905D01*
X204382619Y-100560000D02*
X204382619Y-99798095D01*
X204287381Y-99560000D02*
X203287381Y-99560000D01*
X204287381Y-99083810D02*
X203287381Y-99083810D01*
X204287381Y-98512381D01*
X203287381Y-98512381D01*
X204382619Y-98274286D02*
X204382619Y-97512381D01*
X204287381Y-96750476D02*
X204287381Y-97321905D01*
X204287381Y-97036191D02*
X203287381Y-97036191D01*
X203430238Y-97131429D01*
X203525476Y-97226667D01*
X203573095Y-97321905D01*
X262707381Y-50553572D02*
X261707381Y-50553572D01*
X261707381Y-50172619D01*
X261755000Y-50077381D01*
X261802619Y-50029762D01*
X261897857Y-49982143D01*
X262040714Y-49982143D01*
X262135952Y-50029762D01*
X262183571Y-50077381D01*
X262231190Y-50172619D01*
X262231190Y-50553572D01*
X262802619Y-49791667D02*
X262802619Y-49029762D01*
X261707381Y-48601191D02*
X261707381Y-48410714D01*
X261755000Y-48315476D01*
X261850238Y-48220238D01*
X262040714Y-48172619D01*
X262374048Y-48172619D01*
X262564524Y-48220238D01*
X262659762Y-48315476D01*
X262707381Y-48410714D01*
X262707381Y-48601191D01*
X262659762Y-48696429D01*
X262564524Y-48791667D01*
X262374048Y-48839286D01*
X262040714Y-48839286D01*
X261850238Y-48791667D01*
X261755000Y-48696429D01*
X261707381Y-48601191D01*
X261707381Y-47744048D02*
X262516905Y-47744048D01*
X262612143Y-47696429D01*
X262659762Y-47648810D01*
X262707381Y-47553572D01*
X262707381Y-47363095D01*
X262659762Y-47267857D01*
X262612143Y-47220238D01*
X262516905Y-47172619D01*
X261707381Y-47172619D01*
X261707381Y-46839286D02*
X261707381Y-46267857D01*
X262707381Y-46553572D02*
X261707381Y-46553572D01*
X262802619Y-46172619D02*
X262802619Y-45410714D01*
X262707381Y-44648809D02*
X262707381Y-45220238D01*
X262707381Y-44934524D02*
X261707381Y-44934524D01*
X261850238Y-45029762D01*
X261945476Y-45125000D01*
X261993095Y-45220238D01*
X244927381Y-50553572D02*
X243927381Y-50553572D01*
X243927381Y-50172619D01*
X243975000Y-50077381D01*
X244022619Y-50029762D01*
X244117857Y-49982143D01*
X244260714Y-49982143D01*
X244355952Y-50029762D01*
X244403571Y-50077381D01*
X244451190Y-50172619D01*
X244451190Y-50553572D01*
X245022619Y-49791667D02*
X245022619Y-49029762D01*
X243927381Y-48601191D02*
X243927381Y-48410714D01*
X243975000Y-48315476D01*
X244070238Y-48220238D01*
X244260714Y-48172619D01*
X244594048Y-48172619D01*
X244784524Y-48220238D01*
X244879762Y-48315476D01*
X244927381Y-48410714D01*
X244927381Y-48601191D01*
X244879762Y-48696429D01*
X244784524Y-48791667D01*
X244594048Y-48839286D01*
X244260714Y-48839286D01*
X244070238Y-48791667D01*
X243975000Y-48696429D01*
X243927381Y-48601191D01*
X243927381Y-47744048D02*
X244736905Y-47744048D01*
X244832143Y-47696429D01*
X244879762Y-47648810D01*
X244927381Y-47553572D01*
X244927381Y-47363095D01*
X244879762Y-47267857D01*
X244832143Y-47220238D01*
X244736905Y-47172619D01*
X243927381Y-47172619D01*
X243927381Y-46839286D02*
X243927381Y-46267857D01*
X244927381Y-46553572D02*
X243927381Y-46553572D01*
X245022619Y-46172619D02*
X245022619Y-45410714D01*
X244022619Y-45220238D02*
X243975000Y-45172619D01*
X243927381Y-45077381D01*
X243927381Y-44839285D01*
X243975000Y-44744047D01*
X244022619Y-44696428D01*
X244117857Y-44648809D01*
X244213095Y-44648809D01*
X244355952Y-44696428D01*
X244927381Y-45267857D01*
X244927381Y-44648809D01*
X226512381Y-50553572D02*
X225512381Y-50553572D01*
X225512381Y-50172619D01*
X225560000Y-50077381D01*
X225607619Y-50029762D01*
X225702857Y-49982143D01*
X225845714Y-49982143D01*
X225940952Y-50029762D01*
X225988571Y-50077381D01*
X226036190Y-50172619D01*
X226036190Y-50553572D01*
X226607619Y-49791667D02*
X226607619Y-49029762D01*
X225512381Y-48601191D02*
X225512381Y-48410714D01*
X225560000Y-48315476D01*
X225655238Y-48220238D01*
X225845714Y-48172619D01*
X226179048Y-48172619D01*
X226369524Y-48220238D01*
X226464762Y-48315476D01*
X226512381Y-48410714D01*
X226512381Y-48601191D01*
X226464762Y-48696429D01*
X226369524Y-48791667D01*
X226179048Y-48839286D01*
X225845714Y-48839286D01*
X225655238Y-48791667D01*
X225560000Y-48696429D01*
X225512381Y-48601191D01*
X225512381Y-47744048D02*
X226321905Y-47744048D01*
X226417143Y-47696429D01*
X226464762Y-47648810D01*
X226512381Y-47553572D01*
X226512381Y-47363095D01*
X226464762Y-47267857D01*
X226417143Y-47220238D01*
X226321905Y-47172619D01*
X225512381Y-47172619D01*
X225512381Y-46839286D02*
X225512381Y-46267857D01*
X226512381Y-46553572D02*
X225512381Y-46553572D01*
X226607619Y-46172619D02*
X226607619Y-45410714D01*
X225512381Y-45267857D02*
X225512381Y-44648809D01*
X225893333Y-44982143D01*
X225893333Y-44839285D01*
X225940952Y-44744047D01*
X225988571Y-44696428D01*
X226083810Y-44648809D01*
X226321905Y-44648809D01*
X226417143Y-44696428D01*
X226464762Y-44744047D01*
X226512381Y-44839285D01*
X226512381Y-45125000D01*
X226464762Y-45220238D01*
X226417143Y-45267857D01*
X208732381Y-50553572D02*
X207732381Y-50553572D01*
X207732381Y-50172619D01*
X207780000Y-50077381D01*
X207827619Y-50029762D01*
X207922857Y-49982143D01*
X208065714Y-49982143D01*
X208160952Y-50029762D01*
X208208571Y-50077381D01*
X208256190Y-50172619D01*
X208256190Y-50553572D01*
X208827619Y-49791667D02*
X208827619Y-49029762D01*
X207732381Y-48601191D02*
X207732381Y-48410714D01*
X207780000Y-48315476D01*
X207875238Y-48220238D01*
X208065714Y-48172619D01*
X208399048Y-48172619D01*
X208589524Y-48220238D01*
X208684762Y-48315476D01*
X208732381Y-48410714D01*
X208732381Y-48601191D01*
X208684762Y-48696429D01*
X208589524Y-48791667D01*
X208399048Y-48839286D01*
X208065714Y-48839286D01*
X207875238Y-48791667D01*
X207780000Y-48696429D01*
X207732381Y-48601191D01*
X207732381Y-47744048D02*
X208541905Y-47744048D01*
X208637143Y-47696429D01*
X208684762Y-47648810D01*
X208732381Y-47553572D01*
X208732381Y-47363095D01*
X208684762Y-47267857D01*
X208637143Y-47220238D01*
X208541905Y-47172619D01*
X207732381Y-47172619D01*
X207732381Y-46839286D02*
X207732381Y-46267857D01*
X208732381Y-46553572D02*
X207732381Y-46553572D01*
X208827619Y-46172619D02*
X208827619Y-45410714D01*
X208065714Y-44744047D02*
X208732381Y-44744047D01*
X207684762Y-44982143D02*
X208399048Y-45220238D01*
X208399048Y-44601190D01*
X261532619Y-61055238D02*
X261485000Y-61150476D01*
X261389762Y-61245714D01*
X261246905Y-61388571D01*
X261199286Y-61483810D01*
X261199286Y-61579048D01*
X261437381Y-61531429D02*
X261389762Y-61626667D01*
X261294524Y-61721905D01*
X261104048Y-61769524D01*
X260770714Y-61769524D01*
X260580238Y-61721905D01*
X260485000Y-61626667D01*
X260437381Y-61531429D01*
X260437381Y-61340952D01*
X260485000Y-61245714D01*
X260580238Y-61150476D01*
X260770714Y-61102857D01*
X261104048Y-61102857D01*
X261294524Y-61150476D01*
X261389762Y-61245714D01*
X261437381Y-61340952D01*
X261437381Y-61531429D01*
X261437381Y-60150476D02*
X261437381Y-60721905D01*
X261437381Y-60436191D02*
X260437381Y-60436191D01*
X260580238Y-60531429D01*
X260675476Y-60626667D01*
X260723095Y-60721905D01*
X243752619Y-61690238D02*
X243705000Y-61785476D01*
X243609762Y-61880714D01*
X243466905Y-62023571D01*
X243419286Y-62118810D01*
X243419286Y-62214048D01*
X243657381Y-62166429D02*
X243609762Y-62261667D01*
X243514524Y-62356905D01*
X243324048Y-62404524D01*
X242990714Y-62404524D01*
X242800238Y-62356905D01*
X242705000Y-62261667D01*
X242657381Y-62166429D01*
X242657381Y-61975952D01*
X242705000Y-61880714D01*
X242800238Y-61785476D01*
X242990714Y-61737857D01*
X243324048Y-61737857D01*
X243514524Y-61785476D01*
X243609762Y-61880714D01*
X243657381Y-61975952D01*
X243657381Y-62166429D01*
X242752619Y-61356905D02*
X242705000Y-61309286D01*
X242657381Y-61214048D01*
X242657381Y-60975952D01*
X242705000Y-60880714D01*
X242752619Y-60833095D01*
X242847857Y-60785476D01*
X242943095Y-60785476D01*
X243085952Y-60833095D01*
X243657381Y-61404524D01*
X243657381Y-60785476D01*
X225337619Y-61690238D02*
X225290000Y-61785476D01*
X225194762Y-61880714D01*
X225051905Y-62023571D01*
X225004286Y-62118810D01*
X225004286Y-62214048D01*
X225242381Y-62166429D02*
X225194762Y-62261667D01*
X225099524Y-62356905D01*
X224909048Y-62404524D01*
X224575714Y-62404524D01*
X224385238Y-62356905D01*
X224290000Y-62261667D01*
X224242381Y-62166429D01*
X224242381Y-61975952D01*
X224290000Y-61880714D01*
X224385238Y-61785476D01*
X224575714Y-61737857D01*
X224909048Y-61737857D01*
X225099524Y-61785476D01*
X225194762Y-61880714D01*
X225242381Y-61975952D01*
X225242381Y-62166429D01*
X224242381Y-61404524D02*
X224242381Y-60785476D01*
X224623333Y-61118810D01*
X224623333Y-60975952D01*
X224670952Y-60880714D01*
X224718571Y-60833095D01*
X224813810Y-60785476D01*
X225051905Y-60785476D01*
X225147143Y-60833095D01*
X225194762Y-60880714D01*
X225242381Y-60975952D01*
X225242381Y-61261667D01*
X225194762Y-61356905D01*
X225147143Y-61404524D01*
X207557619Y-61690238D02*
X207510000Y-61785476D01*
X207414762Y-61880714D01*
X207271905Y-62023571D01*
X207224286Y-62118810D01*
X207224286Y-62214048D01*
X207462381Y-62166429D02*
X207414762Y-62261667D01*
X207319524Y-62356905D01*
X207129048Y-62404524D01*
X206795714Y-62404524D01*
X206605238Y-62356905D01*
X206510000Y-62261667D01*
X206462381Y-62166429D01*
X206462381Y-61975952D01*
X206510000Y-61880714D01*
X206605238Y-61785476D01*
X206795714Y-61737857D01*
X207129048Y-61737857D01*
X207319524Y-61785476D01*
X207414762Y-61880714D01*
X207462381Y-61975952D01*
X207462381Y-62166429D01*
X206795714Y-60880714D02*
X207462381Y-60880714D01*
X206414762Y-61118810D02*
X207129048Y-61356905D01*
X207129048Y-60737857D01*
X266787381Y-72358095D02*
X267596905Y-72358095D01*
X267692143Y-72310476D01*
X267739762Y-72262857D01*
X267787381Y-72167619D01*
X267787381Y-71977142D01*
X267739762Y-71881904D01*
X267692143Y-71834285D01*
X267596905Y-71786666D01*
X266787381Y-71786666D01*
X267787381Y-70786666D02*
X267787381Y-71358095D01*
X267787381Y-71072381D02*
X266787381Y-71072381D01*
X266930238Y-71167619D01*
X267025476Y-71262857D01*
X267073095Y-71358095D01*
X267787381Y-69834285D02*
X267787381Y-70405714D01*
X267787381Y-70120000D02*
X266787381Y-70120000D01*
X266930238Y-70215238D01*
X267025476Y-70310476D01*
X267073095Y-70405714D01*
X230592381Y-72358095D02*
X231401905Y-72358095D01*
X231497143Y-72310476D01*
X231544762Y-72262857D01*
X231592381Y-72167619D01*
X231592381Y-71977142D01*
X231544762Y-71881904D01*
X231497143Y-71834285D01*
X231401905Y-71786666D01*
X230592381Y-71786666D01*
X231592381Y-70786666D02*
X231592381Y-71358095D01*
X231592381Y-71072381D02*
X230592381Y-71072381D01*
X230735238Y-71167619D01*
X230830476Y-71262857D01*
X230878095Y-71358095D01*
X230592381Y-70453333D02*
X230592381Y-69834285D01*
X230973333Y-70167619D01*
X230973333Y-70024761D01*
X231020952Y-69929523D01*
X231068571Y-69881904D01*
X231163810Y-69834285D01*
X231401905Y-69834285D01*
X231497143Y-69881904D01*
X231544762Y-69929523D01*
X231592381Y-70024761D01*
X231592381Y-70310476D01*
X231544762Y-70405714D01*
X231497143Y-70453333D01*
X212812381Y-72358095D02*
X213621905Y-72358095D01*
X213717143Y-72310476D01*
X213764762Y-72262857D01*
X213812381Y-72167619D01*
X213812381Y-71977142D01*
X213764762Y-71881904D01*
X213717143Y-71834285D01*
X213621905Y-71786666D01*
X212812381Y-71786666D01*
X213812381Y-70786666D02*
X213812381Y-71358095D01*
X213812381Y-71072381D02*
X212812381Y-71072381D01*
X212955238Y-71167619D01*
X213050476Y-71262857D01*
X213098095Y-71358095D01*
X213145714Y-69929523D02*
X213812381Y-69929523D01*
X212764762Y-70167619D02*
X213479048Y-70405714D01*
X213479048Y-69786666D01*
X262151905Y-84272381D02*
X262151905Y-83272381D01*
X262532858Y-83272381D01*
X262628096Y-83320000D01*
X262675715Y-83367619D01*
X262723334Y-83462857D01*
X262723334Y-83605714D01*
X262675715Y-83700952D01*
X262628096Y-83748571D01*
X262532858Y-83796190D01*
X262151905Y-83796190D01*
X263580477Y-83272381D02*
X263390000Y-83272381D01*
X263294762Y-83320000D01*
X263247143Y-83367619D01*
X263151905Y-83510476D01*
X263104286Y-83700952D01*
X263104286Y-84081905D01*
X263151905Y-84177143D01*
X263199524Y-84224762D01*
X263294762Y-84272381D01*
X263485239Y-84272381D01*
X263580477Y-84224762D01*
X263628096Y-84177143D01*
X263675715Y-84081905D01*
X263675715Y-83843810D01*
X263628096Y-83748571D01*
X263580477Y-83700952D01*
X263485239Y-83653333D01*
X263294762Y-83653333D01*
X263199524Y-83700952D01*
X263151905Y-83748571D01*
X263104286Y-83843810D01*
X277312381Y-92884286D02*
X276312381Y-92884286D01*
X276312381Y-92503333D01*
X276360000Y-92408095D01*
X276407619Y-92360476D01*
X276502857Y-92312857D01*
X276645714Y-92312857D01*
X276740952Y-92360476D01*
X276788571Y-92408095D01*
X276836190Y-92503333D01*
X276836190Y-92884286D01*
X277407619Y-92122381D02*
X277407619Y-91360476D01*
X277026667Y-91170000D02*
X277026667Y-90693809D01*
X277312381Y-91265238D02*
X276312381Y-90931905D01*
X277312381Y-90598571D01*
X277312381Y-90122381D02*
X277264762Y-90217619D01*
X277169524Y-90265238D01*
X276312381Y-90265238D01*
X277312381Y-89741428D02*
X276645714Y-89741428D01*
X276312381Y-89741428D02*
X276360000Y-89789047D01*
X276407619Y-89741428D01*
X276360000Y-89693809D01*
X276312381Y-89741428D01*
X276407619Y-89741428D01*
X277312381Y-89265238D02*
X276645714Y-89265238D01*
X276740952Y-89265238D02*
X276693333Y-89217619D01*
X276645714Y-89122381D01*
X276645714Y-88979523D01*
X276693333Y-88884285D01*
X276788571Y-88836666D01*
X277312381Y-88836666D01*
X276788571Y-88836666D02*
X276693333Y-88789047D01*
X276645714Y-88693809D01*
X276645714Y-88550952D01*
X276693333Y-88455714D01*
X276788571Y-88408095D01*
X277312381Y-88408095D01*
X277312381Y-87408095D02*
X277312381Y-87979524D01*
X277312381Y-87693810D02*
X276312381Y-87693810D01*
X276455238Y-87789048D01*
X276550476Y-87884286D01*
X276598095Y-87979524D01*
D13*
X216961358Y-146739429D02*
X216961358Y-145215429D01*
X217614501Y-146739429D02*
X217124644Y-145868571D01*
X217614501Y-145215429D02*
X216961358Y-146086286D01*
X218703072Y-146739429D02*
X218049929Y-146739429D01*
X218376501Y-146739429D02*
X218376501Y-145215429D01*
X218267644Y-145433143D01*
X218158786Y-145578286D01*
X218049929Y-145650857D01*
D14*
D13*
X223102715Y-149279429D02*
X222721715Y-148553714D01*
X222449572Y-149279429D02*
X222449572Y-147755429D01*
X222885000Y-147755429D01*
X222993858Y-147828000D01*
X223048286Y-147900571D01*
X223102715Y-148045714D01*
X223102715Y-148263429D01*
X223048286Y-148408571D01*
X222993858Y-148481143D01*
X222885000Y-148553714D01*
X222449572Y-148553714D01*
X223592572Y-148481143D02*
X223973572Y-148481143D01*
X224136858Y-149279429D02*
X223592572Y-149279429D01*
X223592572Y-147755429D01*
X224136858Y-147755429D01*
X225171001Y-149279429D02*
X224626715Y-149279429D01*
X224626715Y-147755429D01*
X225497572Y-148844000D02*
X226041858Y-148844000D01*
X225388715Y-149279429D02*
X225769715Y-147755429D01*
X226150715Y-149279429D01*
X226749429Y-148553714D02*
X226749429Y-149279429D01*
X226368429Y-147755429D02*
X226749429Y-148553714D01*
X227130429Y-147755429D01*
X227239286Y-149424571D02*
X228110143Y-149424571D01*
X228327857Y-147900571D02*
X228382286Y-147828000D01*
X228491143Y-147755429D01*
X228763286Y-147755429D01*
X228872143Y-147828000D01*
X228926572Y-147900571D01*
X228981000Y-148045714D01*
X228981000Y-148190857D01*
X228926572Y-148408571D01*
X228273429Y-149279429D01*
X228981000Y-149279429D01*
X230124000Y-149279429D02*
X229743000Y-148553714D01*
X229470857Y-149279429D02*
X229470857Y-147755429D01*
X229906285Y-147755429D01*
X230015143Y-147828000D01*
X230069571Y-147900571D01*
X230124000Y-148045714D01*
X230124000Y-148263429D01*
X230069571Y-148408571D01*
X230015143Y-148481143D01*
X229906285Y-148553714D01*
X229470857Y-148553714D01*
X230450571Y-147755429D02*
X231103714Y-147755429D01*
X230777143Y-149279429D02*
X230777143Y-147755429D01*
D14*
D13*
X216961358Y-110544429D02*
X216961358Y-109020429D01*
X217614501Y-110544429D02*
X217124644Y-109673571D01*
X217614501Y-109020429D02*
X216961358Y-109891286D01*
X218594215Y-109528429D02*
X218594215Y-110544429D01*
X218322072Y-108947857D02*
X218049929Y-110036429D01*
X218757501Y-110036429D01*
D14*
D13*
X223102715Y-113084429D02*
X222721715Y-112358714D01*
X222449572Y-113084429D02*
X222449572Y-111560429D01*
X222885000Y-111560429D01*
X222993858Y-111633000D01*
X223048286Y-111705571D01*
X223102715Y-111850714D01*
X223102715Y-112068429D01*
X223048286Y-112213571D01*
X222993858Y-112286143D01*
X222885000Y-112358714D01*
X222449572Y-112358714D01*
X223592572Y-112286143D02*
X223973572Y-112286143D01*
X224136858Y-113084429D02*
X223592572Y-113084429D01*
X223592572Y-111560429D01*
X224136858Y-111560429D01*
X225171001Y-113084429D02*
X224626715Y-113084429D01*
X224626715Y-111560429D01*
X225497572Y-112649000D02*
X226041858Y-112649000D01*
X225388715Y-113084429D02*
X225769715Y-111560429D01*
X226150715Y-113084429D01*
X226749429Y-112358714D02*
X226749429Y-113084429D01*
X226368429Y-111560429D02*
X226749429Y-112358714D01*
X227130429Y-111560429D01*
X227239286Y-113229571D02*
X228110143Y-113229571D01*
X228327857Y-111705571D02*
X228382286Y-111633000D01*
X228491143Y-111560429D01*
X228763286Y-111560429D01*
X228872143Y-111633000D01*
X228926572Y-111705571D01*
X228981000Y-111850714D01*
X228981000Y-111995857D01*
X228926572Y-112213571D01*
X228273429Y-113084429D01*
X228981000Y-113084429D01*
X230124000Y-113084429D02*
X229743000Y-112358714D01*
X229470857Y-113084429D02*
X229470857Y-111560429D01*
X229906285Y-111560429D01*
X230015143Y-111633000D01*
X230069571Y-111705571D01*
X230124000Y-111850714D01*
X230124000Y-112068429D01*
X230069571Y-112213571D01*
X230015143Y-112286143D01*
X229906285Y-112358714D01*
X229470857Y-112358714D01*
X230450571Y-111560429D02*
X231103714Y-111560429D01*
X230777143Y-113084429D02*
X230777143Y-111560429D01*
D14*
D11*
X206827381Y-72524762D02*
X206351190Y-72858096D01*
X206827381Y-73096191D02*
X205827381Y-73096191D01*
X205827381Y-72715238D01*
X205875000Y-72620000D01*
X205922619Y-72572381D01*
X206017857Y-72524762D01*
X206160714Y-72524762D01*
X206255952Y-72572381D01*
X206303571Y-72620000D01*
X206351190Y-72715238D01*
X206351190Y-73096191D01*
X206922619Y-72334286D02*
X206922619Y-71572381D01*
X206160714Y-70905714D02*
X206827381Y-70905714D01*
X205779762Y-71143810D02*
X206494048Y-71381905D01*
X206494048Y-70762857D01*
X206922619Y-70620000D02*
X206922619Y-69858095D01*
X206827381Y-69096190D02*
X206827381Y-69667619D01*
X206827381Y-69381905D02*
X205827381Y-69381905D01*
X205970238Y-69477143D01*
X206065476Y-69572381D01*
X206113095Y-69667619D01*
X260802381Y-72524762D02*
X260326190Y-72858096D01*
X260802381Y-73096191D02*
X259802381Y-73096191D01*
X259802381Y-72715238D01*
X259850000Y-72620000D01*
X259897619Y-72572381D01*
X259992857Y-72524762D01*
X260135714Y-72524762D01*
X260230952Y-72572381D01*
X260278571Y-72620000D01*
X260326190Y-72715238D01*
X260326190Y-73096191D01*
X260897619Y-72334286D02*
X260897619Y-71572381D01*
X260135714Y-70905714D02*
X260802381Y-70905714D01*
X259754762Y-71143810D02*
X260469048Y-71381905D01*
X260469048Y-70762857D01*
X260897619Y-70620000D02*
X260897619Y-69858095D01*
X260135714Y-69191428D02*
X260802381Y-69191428D01*
X259754762Y-69429524D02*
X260469048Y-69667619D01*
X260469048Y-69048571D01*
X270962381Y-98424762D02*
X270486190Y-98758096D01*
X270962381Y-98996191D02*
X269962381Y-98996191D01*
X269962381Y-98615238D01*
X270010000Y-98520000D01*
X270057619Y-98472381D01*
X270152857Y-98424762D01*
X270295714Y-98424762D01*
X270390952Y-98472381D01*
X270438571Y-98520000D01*
X270486190Y-98615238D01*
X270486190Y-98996191D01*
X271057619Y-98234286D02*
X271057619Y-97472381D01*
X270962381Y-96758095D02*
X270962381Y-97234286D01*
X269962381Y-97234286D01*
X270438571Y-96424762D02*
X270438571Y-96091428D01*
X270962381Y-95948571D02*
X270962381Y-96424762D01*
X269962381Y-96424762D01*
X269962381Y-95948571D01*
X270962381Y-95520000D02*
X269962381Y-95520000D01*
X269962381Y-95281905D01*
X270010000Y-95139047D01*
X270105238Y-95043809D01*
X270200476Y-94996190D01*
X270390952Y-94948571D01*
X270533810Y-94948571D01*
X270724286Y-94996190D01*
X270819524Y-95043809D01*
X270914762Y-95139047D01*
X270962381Y-95281905D01*
X270962381Y-95520000D01*
X270962381Y-93996190D02*
X270962381Y-94567619D01*
X270962381Y-94281905D02*
X269962381Y-94281905D01*
X270105238Y-94377143D01*
X270200476Y-94472381D01*
X270248095Y-94567619D01*
X227830238Y-84272381D02*
X227496904Y-83796190D01*
X227258809Y-84272381D02*
X227258809Y-83272381D01*
X227639762Y-83272381D01*
X227735000Y-83320000D01*
X227782619Y-83367619D01*
X227830238Y-83462857D01*
X227830238Y-83605714D01*
X227782619Y-83700952D01*
X227735000Y-83748571D01*
X227639762Y-83796190D01*
X227258809Y-83796190D01*
X228020714Y-84367619D02*
X228782619Y-84367619D01*
X229544524Y-84272381D02*
X228973095Y-84272381D01*
X229258809Y-84272381D02*
X229258809Y-83272381D01*
X229163571Y-83415238D01*
X229068333Y-83510476D01*
X228973095Y-83558095D01*
X229735000Y-84367619D02*
X230496905Y-84367619D01*
X231258810Y-84272381D02*
X230687381Y-84272381D01*
X230973095Y-84272381D02*
X230973095Y-83272381D01*
X230877857Y-83415238D01*
X230782619Y-83510476D01*
X230687381Y-83558095D01*
X227830238Y-90622381D02*
X227496904Y-90146190D01*
X227258809Y-90622381D02*
X227258809Y-89622381D01*
X227639762Y-89622381D01*
X227735000Y-89670000D01*
X227782619Y-89717619D01*
X227830238Y-89812857D01*
X227830238Y-89955714D01*
X227782619Y-90050952D01*
X227735000Y-90098571D01*
X227639762Y-90146190D01*
X227258809Y-90146190D01*
X228020714Y-90717619D02*
X228782619Y-90717619D01*
X229544524Y-90622381D02*
X228973095Y-90622381D01*
X229258809Y-90622381D02*
X229258809Y-89622381D01*
X229163571Y-89765238D01*
X229068333Y-89860476D01*
X228973095Y-89908095D01*
X229735000Y-90717619D02*
X230496905Y-90717619D01*
X230687381Y-89717619D02*
X230735000Y-89670000D01*
X230830238Y-89622381D01*
X231068334Y-89622381D01*
X231163572Y-89670000D01*
X231211191Y-89717619D01*
X231258810Y-89812857D01*
X231258810Y-89908095D01*
X231211191Y-90050952D01*
X230639762Y-90622381D01*
X231258810Y-90622381D01*
X227830238Y-96972381D02*
X227496904Y-96496190D01*
X227258809Y-96972381D02*
X227258809Y-95972381D01*
X227639762Y-95972381D01*
X227735000Y-96020000D01*
X227782619Y-96067619D01*
X227830238Y-96162857D01*
X227830238Y-96305714D01*
X227782619Y-96400952D01*
X227735000Y-96448571D01*
X227639762Y-96496190D01*
X227258809Y-96496190D01*
X228020714Y-97067619D02*
X228782619Y-97067619D01*
X229544524Y-96972381D02*
X228973095Y-96972381D01*
X229258809Y-96972381D02*
X229258809Y-95972381D01*
X229163571Y-96115238D01*
X229068333Y-96210476D01*
X228973095Y-96258095D01*
X229735000Y-97067619D02*
X230496905Y-97067619D01*
X230639762Y-95972381D02*
X231258810Y-95972381D01*
X230925476Y-96353333D01*
X231068334Y-96353333D01*
X231163572Y-96400952D01*
X231211191Y-96448571D01*
X231258810Y-96543810D01*
X231258810Y-96781905D01*
X231211191Y-96877143D01*
X231163572Y-96924762D01*
X231068334Y-96972381D01*
X230782619Y-96972381D01*
X230687381Y-96924762D01*
X230639762Y-96877143D01*
X227830238Y-103322381D02*
X227496904Y-102846190D01*
X227258809Y-103322381D02*
X227258809Y-102322381D01*
X227639762Y-102322381D01*
X227735000Y-102370000D01*
X227782619Y-102417619D01*
X227830238Y-102512857D01*
X227830238Y-102655714D01*
X227782619Y-102750952D01*
X227735000Y-102798571D01*
X227639762Y-102846190D01*
X227258809Y-102846190D01*
X228020714Y-103417619D02*
X228782619Y-103417619D01*
X229544524Y-103322381D02*
X228973095Y-103322381D01*
X229258809Y-103322381D02*
X229258809Y-102322381D01*
X229163571Y-102465238D01*
X229068333Y-102560476D01*
X228973095Y-102608095D01*
X229735000Y-103417619D02*
X230496905Y-103417619D01*
X231163572Y-102655714D02*
X231163572Y-103322381D01*
X230925476Y-102274762D02*
X230687381Y-102989048D01*
X231306429Y-102989048D01*
X227830238Y-81097381D02*
X227496904Y-80621190D01*
X227258809Y-81097381D02*
X227258809Y-80097381D01*
X227639762Y-80097381D01*
X227735000Y-80145000D01*
X227782619Y-80192619D01*
X227830238Y-80287857D01*
X227830238Y-80430714D01*
X227782619Y-80525952D01*
X227735000Y-80573571D01*
X227639762Y-80621190D01*
X227258809Y-80621190D01*
X228020714Y-81192619D02*
X228782619Y-81192619D01*
X228973095Y-80192619D02*
X229020714Y-80145000D01*
X229115952Y-80097381D01*
X229354048Y-80097381D01*
X229449286Y-80145000D01*
X229496905Y-80192619D01*
X229544524Y-80287857D01*
X229544524Y-80383095D01*
X229496905Y-80525952D01*
X228925476Y-81097381D01*
X229544524Y-81097381D01*
X229735000Y-81192619D02*
X230496905Y-81192619D01*
X231258810Y-81097381D02*
X230687381Y-81097381D01*
X230973095Y-81097381D02*
X230973095Y-80097381D01*
X230877857Y-80240238D01*
X230782619Y-80335476D01*
X230687381Y-80383095D01*
X227830238Y-87447381D02*
X227496904Y-86971190D01*
X227258809Y-87447381D02*
X227258809Y-86447381D01*
X227639762Y-86447381D01*
X227735000Y-86495000D01*
X227782619Y-86542619D01*
X227830238Y-86637857D01*
X227830238Y-86780714D01*
X227782619Y-86875952D01*
X227735000Y-86923571D01*
X227639762Y-86971190D01*
X227258809Y-86971190D01*
X228020714Y-87542619D02*
X228782619Y-87542619D01*
X228973095Y-86542619D02*
X229020714Y-86495000D01*
X229115952Y-86447381D01*
X229354048Y-86447381D01*
X229449286Y-86495000D01*
X229496905Y-86542619D01*
X229544524Y-86637857D01*
X229544524Y-86733095D01*
X229496905Y-86875952D01*
X228925476Y-87447381D01*
X229544524Y-87447381D01*
X229735000Y-87542619D02*
X230496905Y-87542619D01*
X230687381Y-86542619D02*
X230735000Y-86495000D01*
X230830238Y-86447381D01*
X231068334Y-86447381D01*
X231163572Y-86495000D01*
X231211191Y-86542619D01*
X231258810Y-86637857D01*
X231258810Y-86733095D01*
X231211191Y-86875952D01*
X230639762Y-87447381D01*
X231258810Y-87447381D01*
X227830238Y-93797381D02*
X227496904Y-93321190D01*
X227258809Y-93797381D02*
X227258809Y-92797381D01*
X227639762Y-92797381D01*
X227735000Y-92845000D01*
X227782619Y-92892619D01*
X227830238Y-92987857D01*
X227830238Y-93130714D01*
X227782619Y-93225952D01*
X227735000Y-93273571D01*
X227639762Y-93321190D01*
X227258809Y-93321190D01*
X228020714Y-93892619D02*
X228782619Y-93892619D01*
X228973095Y-92892619D02*
X229020714Y-92845000D01*
X229115952Y-92797381D01*
X229354048Y-92797381D01*
X229449286Y-92845000D01*
X229496905Y-92892619D01*
X229544524Y-92987857D01*
X229544524Y-93083095D01*
X229496905Y-93225952D01*
X228925476Y-93797381D01*
X229544524Y-93797381D01*
X229735000Y-93892619D02*
X230496905Y-93892619D01*
X230639762Y-92797381D02*
X231258810Y-92797381D01*
X230925476Y-93178333D01*
X231068334Y-93178333D01*
X231163572Y-93225952D01*
X231211191Y-93273571D01*
X231258810Y-93368810D01*
X231258810Y-93606905D01*
X231211191Y-93702143D01*
X231163572Y-93749762D01*
X231068334Y-93797381D01*
X230782619Y-93797381D01*
X230687381Y-93749762D01*
X230639762Y-93702143D01*
X227830238Y-100147381D02*
X227496904Y-99671190D01*
X227258809Y-100147381D02*
X227258809Y-99147381D01*
X227639762Y-99147381D01*
X227735000Y-99195000D01*
X227782619Y-99242619D01*
X227830238Y-99337857D01*
X227830238Y-99480714D01*
X227782619Y-99575952D01*
X227735000Y-99623571D01*
X227639762Y-99671190D01*
X227258809Y-99671190D01*
X228020714Y-100242619D02*
X228782619Y-100242619D01*
X228973095Y-99242619D02*
X229020714Y-99195000D01*
X229115952Y-99147381D01*
X229354048Y-99147381D01*
X229449286Y-99195000D01*
X229496905Y-99242619D01*
X229544524Y-99337857D01*
X229544524Y-99433095D01*
X229496905Y-99575952D01*
X228925476Y-100147381D01*
X229544524Y-100147381D01*
X229735000Y-100242619D02*
X230496905Y-100242619D01*
X231163572Y-99480714D02*
X231163572Y-100147381D01*
X230925476Y-99099762D02*
X230687381Y-99814048D01*
X231306429Y-99814048D01*
X220797381Y-72524762D02*
X220321190Y-72858096D01*
X220797381Y-73096191D02*
X219797381Y-73096191D01*
X219797381Y-72715238D01*
X219845000Y-72620000D01*
X219892619Y-72572381D01*
X219987857Y-72524762D01*
X220130714Y-72524762D01*
X220225952Y-72572381D01*
X220273571Y-72620000D01*
X220321190Y-72715238D01*
X220321190Y-73096191D01*
X220892619Y-72334286D02*
X220892619Y-71572381D01*
X219797381Y-71429524D02*
X219797381Y-70810476D01*
X220178333Y-71143810D01*
X220178333Y-71000952D01*
X220225952Y-70905714D01*
X220273571Y-70858095D01*
X220368810Y-70810476D01*
X220606905Y-70810476D01*
X220702143Y-70858095D01*
X220749762Y-70905714D01*
X220797381Y-71000952D01*
X220797381Y-71286667D01*
X220749762Y-71381905D01*
X220702143Y-71429524D01*
X220892619Y-70620000D02*
X220892619Y-69858095D01*
X220797381Y-69096190D02*
X220797381Y-69667619D01*
X220797381Y-69381905D02*
X219797381Y-69381905D01*
X219940238Y-69477143D01*
X220035476Y-69572381D01*
X220083095Y-69667619D01*
X256992381Y-72524762D02*
X256516190Y-72858096D01*
X256992381Y-73096191D02*
X255992381Y-73096191D01*
X255992381Y-72715238D01*
X256040000Y-72620000D01*
X256087619Y-72572381D01*
X256182857Y-72524762D01*
X256325714Y-72524762D01*
X256420952Y-72572381D01*
X256468571Y-72620000D01*
X256516190Y-72715238D01*
X256516190Y-73096191D01*
X257087619Y-72334286D02*
X257087619Y-71572381D01*
X255992381Y-71429524D02*
X255992381Y-70810476D01*
X256373333Y-71143810D01*
X256373333Y-71000952D01*
X256420952Y-70905714D01*
X256468571Y-70858095D01*
X256563810Y-70810476D01*
X256801905Y-70810476D01*
X256897143Y-70858095D01*
X256944762Y-70905714D01*
X256992381Y-71000952D01*
X256992381Y-71286667D01*
X256944762Y-71381905D01*
X256897143Y-71429524D01*
X257087619Y-70620000D02*
X257087619Y-69858095D01*
X255992381Y-69715238D02*
X255992381Y-69096190D01*
X256373333Y-69429524D01*
X256373333Y-69286666D01*
X256420952Y-69191428D01*
X256468571Y-69143809D01*
X256563810Y-69096190D01*
X256801905Y-69096190D01*
X256897143Y-69143809D01*
X256944762Y-69191428D01*
X256992381Y-69286666D01*
X256992381Y-69572381D01*
X256944762Y-69667619D01*
X256897143Y-69715238D01*
X274772381Y-72524762D02*
X274296190Y-72858096D01*
X274772381Y-73096191D02*
X273772381Y-73096191D01*
X273772381Y-72715238D01*
X273820000Y-72620000D01*
X273867619Y-72572381D01*
X273962857Y-72524762D01*
X274105714Y-72524762D01*
X274200952Y-72572381D01*
X274248571Y-72620000D01*
X274296190Y-72715238D01*
X274296190Y-73096191D01*
X274867619Y-72334286D02*
X274867619Y-71572381D01*
X273772381Y-71429524D02*
X273772381Y-70810476D01*
X274153333Y-71143810D01*
X274153333Y-71000952D01*
X274200952Y-70905714D01*
X274248571Y-70858095D01*
X274343810Y-70810476D01*
X274581905Y-70810476D01*
X274677143Y-70858095D01*
X274724762Y-70905714D01*
X274772381Y-71000952D01*
X274772381Y-71286667D01*
X274724762Y-71381905D01*
X274677143Y-71429524D01*
X274867619Y-70620000D02*
X274867619Y-69858095D01*
X274105714Y-69191428D02*
X274772381Y-69191428D01*
X273724762Y-69429524D02*
X274439048Y-69667619D01*
X274439048Y-69048571D01*
M02*
