G04 #@! TF.FileFunction,Copper,L1,Top,Signal*
%FSLAX46Y46*%
G04 Gerber Fmt 4.6, Leading zero omitted, Abs format (unit mm)*
G04 Created by KiCad (PCBNEW 4.0.2+dfsg1-stable) date ven. 23 juin 2017 15:57:35 CEST*
%MOMM*%
G01*
G04 APERTURE LIST*
%ADD10C,0.100000*%
%ADD11O,1.600000X1.600000*%
%ADD12C,1.998980*%
%ADD13R,1.998980X1.998980*%
%ADD14R,2.032000X1.727200*%
%ADD15O,2.032000X1.727200*%
%ADD16R,1.900000X2.000000*%
%ADD17C,1.900000*%
%ADD18R,1.727200X1.727200*%
%ADD19O,1.727200X1.727200*%
%ADD20O,1.800860X3.500120*%
%ADD21O,3.500120X1.800860*%
%ADD22O,1.501140X2.499360*%
%ADD23R,1.727200X2.032000*%
%ADD24O,1.727200X2.032000*%
%ADD25R,2.032000X2.032000*%
%ADD26O,2.032000X2.032000*%
%ADD27C,0.250000*%
G04 APERTURE END LIST*
D10*
D11*
X253365000Y-73660000D03*
X253365000Y-71120000D03*
X253365000Y-68580000D03*
X245745000Y-68580000D03*
X245745000Y-71120000D03*
X245745000Y-73660000D03*
D12*
X238125000Y-76200000D03*
X238125000Y-66040000D03*
X242570000Y-76200000D03*
X242570000Y-66040000D03*
X224155000Y-76200000D03*
X224155000Y-66040000D03*
D13*
X215265000Y-127000000D03*
D12*
X220345000Y-127000000D03*
X225425000Y-127000000D03*
X233045000Y-127000000D03*
X233045000Y-119380000D03*
X225425000Y-119380000D03*
X220345000Y-119380000D03*
X215265000Y-119380000D03*
D13*
X215265000Y-139065000D03*
D12*
X220345000Y-139065000D03*
X225425000Y-139065000D03*
X233045000Y-139065000D03*
X233045000Y-131445000D03*
X225425000Y-131445000D03*
X220345000Y-131445000D03*
X215265000Y-131445000D03*
D13*
X238125000Y-132715000D03*
D12*
X238125000Y-137795000D03*
X238125000Y-142875000D03*
X238125000Y-150495000D03*
X245745000Y-150495000D03*
X245745000Y-142875000D03*
X245745000Y-137795000D03*
X245745000Y-132715000D03*
D11*
X259080000Y-139700000D03*
X259080000Y-137160000D03*
X259080000Y-134620000D03*
X259080000Y-132080000D03*
X259080000Y-129540000D03*
X259080000Y-127000000D03*
X259080000Y-124460000D03*
X259080000Y-121920000D03*
X251460000Y-121920000D03*
X251460000Y-124460000D03*
X251460000Y-127000000D03*
X251460000Y-129540000D03*
X251460000Y-132080000D03*
X251460000Y-134620000D03*
X251460000Y-137160000D03*
X251460000Y-139700000D03*
X251460000Y-96520000D03*
X251460000Y-99060000D03*
X251460000Y-101600000D03*
X251460000Y-104140000D03*
X251460000Y-106680000D03*
X251460000Y-109220000D03*
X251460000Y-111760000D03*
X251460000Y-114300000D03*
X259080000Y-114300000D03*
X259080000Y-111760000D03*
X259080000Y-109220000D03*
X259080000Y-106680000D03*
X259080000Y-104140000D03*
X259080000Y-101600000D03*
X259080000Y-99060000D03*
X259080000Y-96520000D03*
D14*
X274320000Y-116840000D03*
D15*
X274320000Y-119380000D03*
X274320000Y-121920000D03*
X274320000Y-124460000D03*
D12*
X271782540Y-49530000D03*
D13*
X271782540Y-39370000D03*
D12*
X254002540Y-49530000D03*
D13*
X254002540Y-39370000D03*
D12*
X235587540Y-49530000D03*
D13*
X235587540Y-39370000D03*
D12*
X217807540Y-49530000D03*
D13*
X217807540Y-39370000D03*
D16*
X271780000Y-81280000D03*
D17*
X274320000Y-81280000D03*
D18*
X264160000Y-91440000D03*
D19*
X266700000Y-91440000D03*
X264160000Y-93980000D03*
X266700000Y-93980000D03*
X264160000Y-96520000D03*
X266700000Y-96520000D03*
X264160000Y-99060000D03*
X266700000Y-99060000D03*
X264160000Y-101600000D03*
X266700000Y-101600000D03*
X264160000Y-104140000D03*
X266700000Y-104140000D03*
X264160000Y-106680000D03*
X266700000Y-106680000D03*
X264160000Y-109220000D03*
X266700000Y-109220000D03*
X264160000Y-111760000D03*
X266700000Y-111760000D03*
X264160000Y-114300000D03*
X266700000Y-114300000D03*
X264160000Y-116840000D03*
X266700000Y-116840000D03*
X264160000Y-119380000D03*
X266700000Y-119380000D03*
X264160000Y-121920000D03*
X266700000Y-121920000D03*
X264160000Y-124460000D03*
X266700000Y-124460000D03*
X264160000Y-127000000D03*
X266700000Y-127000000D03*
X264160000Y-129540000D03*
X266700000Y-129540000D03*
X264160000Y-132080000D03*
X266700000Y-132080000D03*
X264160000Y-134620000D03*
X266700000Y-134620000D03*
X264160000Y-137160000D03*
X266700000Y-137160000D03*
X264160000Y-139700000D03*
X266700000Y-139700000D03*
D14*
X274320000Y-96520000D03*
D15*
X274320000Y-99060000D03*
X274320000Y-101600000D03*
D14*
X274320000Y-106680000D03*
D15*
X274320000Y-109220000D03*
X274320000Y-111760000D03*
D20*
X264795000Y-54610000D03*
X267335000Y-54610000D03*
X269875000Y-54610000D03*
X247015000Y-54610000D03*
X249555000Y-54610000D03*
X252095000Y-54610000D03*
X228600000Y-54610000D03*
X231140000Y-54610000D03*
X233680000Y-54610000D03*
X210820000Y-54610000D03*
X213360000Y-54610000D03*
X215900000Y-54610000D03*
D21*
X208280000Y-147955000D03*
X208280000Y-145415000D03*
X208280000Y-135890000D03*
X208280000Y-133350000D03*
X208280000Y-124460000D03*
X208280000Y-121920000D03*
X208280000Y-112395000D03*
X208280000Y-109855000D03*
D20*
X249555000Y-149860000D03*
X252095000Y-149860000D03*
X254635000Y-149860000D03*
X237490000Y-125730000D03*
X240030000Y-125730000D03*
X242570000Y-125730000D03*
X267335000Y-40640000D03*
X264795000Y-40640000D03*
X249555000Y-40640000D03*
X247015000Y-40640000D03*
X231140000Y-40640000D03*
X228600000Y-40640000D03*
X213360000Y-40640000D03*
X210820000Y-40640000D03*
D14*
X246380000Y-106680000D03*
D15*
X246380000Y-104140000D03*
X246380000Y-101600000D03*
X246380000Y-99060000D03*
X246380000Y-96520000D03*
X246380000Y-93980000D03*
D21*
X208280000Y-100330000D03*
X208280000Y-97790000D03*
D20*
X267335000Y-47625000D03*
X264795000Y-47625000D03*
X249555000Y-47625000D03*
X247015000Y-47625000D03*
X231140000Y-47625000D03*
X228600000Y-47625000D03*
X213360000Y-47625000D03*
X210820000Y-47625000D03*
D22*
X267335000Y-61595000D03*
X264795000Y-61595000D03*
X269875000Y-61595000D03*
X249555000Y-61595000D03*
X247015000Y-61595000D03*
X252095000Y-61595000D03*
X231140000Y-61595000D03*
X228600000Y-61595000D03*
X233680000Y-61595000D03*
X213360000Y-61595000D03*
X210820000Y-61595000D03*
X215900000Y-61595000D03*
D11*
X271145000Y-73660000D03*
X271145000Y-71120000D03*
X271145000Y-68580000D03*
X263525000Y-68580000D03*
X263525000Y-71120000D03*
X263525000Y-73660000D03*
X234950000Y-73660000D03*
X234950000Y-71120000D03*
X234950000Y-68580000D03*
X227330000Y-68580000D03*
X227330000Y-71120000D03*
X227330000Y-73660000D03*
X217170000Y-73660000D03*
X217170000Y-71120000D03*
X217170000Y-68580000D03*
X209550000Y-68580000D03*
X209550000Y-71120000D03*
X209550000Y-73660000D03*
D23*
X266700000Y-81280000D03*
D24*
X264160000Y-81280000D03*
X261620000Y-81280000D03*
X259080000Y-81280000D03*
D25*
X274320000Y-88900000D03*
D26*
X274320000Y-91440000D03*
D13*
X215265000Y-151130000D03*
D12*
X220345000Y-151130000D03*
X225425000Y-151130000D03*
X233045000Y-151130000D03*
X233045000Y-143510000D03*
X225425000Y-143510000D03*
X220345000Y-143510000D03*
X215265000Y-143510000D03*
D13*
X215265000Y-114935000D03*
D12*
X220345000Y-114935000D03*
X225425000Y-114935000D03*
X233045000Y-114935000D03*
X233045000Y-107315000D03*
X225425000Y-107315000D03*
X220345000Y-107315000D03*
X215265000Y-107315000D03*
X206375000Y-76200000D03*
X206375000Y-66040000D03*
X260350000Y-76200000D03*
X260350000Y-66040000D03*
X270510000Y-88900000D03*
X270510000Y-103900000D03*
X224155000Y-83820000D03*
X234315000Y-83820000D03*
X224155000Y-90170000D03*
X234315000Y-90170000D03*
X224155000Y-96520000D03*
X234315000Y-96520000D03*
X224155000Y-102870000D03*
X234315000Y-102870000D03*
X224155000Y-80645000D03*
X234315000Y-80645000D03*
X224155000Y-86995000D03*
X234315000Y-86995000D03*
X224155000Y-93345000D03*
X234315000Y-93345000D03*
X224155000Y-99695000D03*
X234315000Y-99695000D03*
X220345000Y-76200000D03*
X220345000Y-66040000D03*
X256540000Y-76200000D03*
X256540000Y-66040000D03*
X274320000Y-76200000D03*
X274320000Y-66040000D03*
D27*
X273370040Y-37782500D02*
X273367500Y-37782500D01*
X224155000Y-83820000D02*
X222250000Y-81915000D01*
X258445000Y-71120000D02*
X267335000Y-62230000D01*
X258445000Y-77470000D02*
X258445000Y-71120000D01*
X257175000Y-78740000D02*
X258445000Y-77470000D01*
X235585000Y-78740000D02*
X257175000Y-78740000D01*
X223520000Y-78740000D02*
X235585000Y-78740000D01*
X222250000Y-80010000D02*
X223520000Y-78740000D01*
X222250000Y-81915000D02*
X222250000Y-80010000D01*
X267335000Y-62230000D02*
X267335000Y-61595000D01*
X263525000Y-71120000D02*
X271780000Y-62865000D01*
X271780000Y-56515000D02*
X269875000Y-54610000D01*
X271780000Y-62865000D02*
X271780000Y-56515000D01*
X224155000Y-90170000D02*
X222250000Y-88265000D01*
X240030000Y-71120000D02*
X249555000Y-61595000D01*
X240030000Y-76835000D02*
X240030000Y-71120000D01*
X238760000Y-78105000D02*
X240030000Y-76835000D01*
X222885000Y-78105000D02*
X238760000Y-78105000D01*
X221615000Y-79375000D02*
X222885000Y-78105000D01*
X221615000Y-87630000D02*
X221615000Y-79375000D01*
X222250000Y-88265000D02*
X221615000Y-87630000D01*
X245745000Y-71120000D02*
X254000000Y-62865000D01*
X254000000Y-56515000D02*
X252095000Y-54610000D01*
X254000000Y-62865000D02*
X254000000Y-56515000D01*
X224155000Y-96520000D02*
X220980000Y-93345000D01*
X222250000Y-70485000D02*
X231140000Y-61595000D01*
X222250000Y-77470000D02*
X222250000Y-70485000D01*
X220980000Y-78740000D02*
X222250000Y-77470000D01*
X220980000Y-93345000D02*
X220980000Y-78740000D01*
X235585000Y-50165000D02*
X234315000Y-48895000D01*
X234315000Y-48895000D02*
X233680000Y-48895000D01*
X227330000Y-71120000D02*
X235585000Y-62865000D01*
X235585000Y-56515000D02*
X233680000Y-54610000D01*
X235585000Y-62865000D02*
X235585000Y-56515000D01*
X213360000Y-61595000D02*
X205105000Y-69850000D01*
X204470000Y-83185000D02*
X224155000Y-102870000D01*
X204470000Y-70485000D02*
X204470000Y-83185000D01*
X205105000Y-69850000D02*
X204470000Y-70485000D01*
X209550000Y-71120000D02*
X217805000Y-62865000D01*
X217805000Y-56515000D02*
X215900000Y-54610000D01*
X217805000Y-62865000D02*
X217805000Y-56515000D01*
X256540000Y-66040000D02*
X256540000Y-51435000D01*
X238125000Y-66040000D02*
X238125000Y-51435000D01*
X274320000Y-66040000D02*
X274320000Y-54610000D01*
X220345000Y-53340000D02*
X220345000Y-66040000D01*
X222250000Y-51435000D02*
X220345000Y-53340000D01*
X271145000Y-51435000D02*
X256540000Y-51435000D01*
X256540000Y-51435000D02*
X238125000Y-51435000D01*
X238125000Y-51435000D02*
X222250000Y-51435000D01*
X274320000Y-54610000D02*
X271145000Y-51435000D01*
X271780000Y-81280000D02*
X271780000Y-78740000D01*
X264160000Y-81280000D02*
X264160000Y-80645000D01*
X264160000Y-80645000D02*
X266065000Y-78740000D01*
X276225000Y-67945000D02*
X274320000Y-66040000D01*
X276225000Y-76835000D02*
X276225000Y-67945000D01*
X274320000Y-78740000D02*
X276225000Y-76835000D01*
X266065000Y-78740000D02*
X271780000Y-78740000D01*
X271780000Y-78740000D02*
X274320000Y-78740000D01*
X224155000Y-86995000D02*
X227965000Y-86995000D01*
X227965000Y-93345000D02*
X227965000Y-86995000D01*
X227965000Y-86995000D02*
X227965000Y-84455000D01*
X227965000Y-84455000D02*
X224155000Y-80645000D01*
X224155000Y-93345000D02*
X227965000Y-93345000D01*
X227965000Y-99695000D02*
X227965000Y-93345000D01*
X256540000Y-119380000D02*
X247650000Y-119380000D01*
X227965000Y-99695000D02*
X224155000Y-99695000D01*
X247650000Y-119380000D02*
X227965000Y-99695000D01*
X246380000Y-106680000D02*
X247015000Y-106680000D01*
X247015000Y-106680000D02*
X248285000Y-105410000D01*
X254000000Y-105410000D02*
X254635000Y-106045000D01*
X248285000Y-105410000D02*
X254000000Y-105410000D01*
X254635000Y-109855000D02*
X254635000Y-107950000D01*
X254635000Y-112395000D02*
X256540000Y-114300000D01*
X254635000Y-109855000D02*
X254635000Y-112395000D01*
X254635000Y-107950000D02*
X254635000Y-106045000D01*
X254635000Y-106045000D02*
X259080000Y-101600000D01*
X256540000Y-114300000D02*
X259080000Y-114300000D01*
X259080000Y-121920000D02*
X257175000Y-120015000D01*
X256540000Y-119380000D02*
X256540000Y-114300000D01*
X257175000Y-120015000D02*
X256540000Y-119380000D01*
X266700000Y-96520000D02*
X265430000Y-95250000D01*
X265430000Y-82550000D02*
X264160000Y-81280000D01*
X265430000Y-95250000D02*
X265430000Y-82550000D01*
X274320000Y-96520000D02*
X274320000Y-91440000D01*
X274320000Y-116840000D02*
X269240000Y-116840000D01*
X269240000Y-116840000D02*
X266700000Y-114300000D01*
X266700000Y-106680000D02*
X274320000Y-106680000D01*
X266700000Y-96520000D02*
X274320000Y-96520000D01*
X264160000Y-121920000D02*
X259080000Y-121920000D01*
X270510000Y-88900000D02*
X274320000Y-85090000D01*
X274320000Y-85090000D02*
X274320000Y-81280000D01*
X233045000Y-139065000D02*
X231140000Y-139065000D01*
X233045000Y-127000000D02*
X231140000Y-127000000D01*
X233045000Y-151130000D02*
X231140000Y-149225000D01*
X231140000Y-116840000D02*
X233045000Y-114935000D01*
X231140000Y-149225000D02*
X231140000Y-139065000D01*
X231140000Y-139065000D02*
X231140000Y-127000000D01*
X231140000Y-127000000D02*
X231140000Y-116840000D01*
X238125000Y-150495000D02*
X238125000Y-152400000D01*
X259715000Y-142240000D02*
X259715000Y-149225000D01*
X234315000Y-152400000D02*
X233045000Y-151130000D01*
X256540000Y-152400000D02*
X238125000Y-152400000D01*
X238125000Y-152400000D02*
X234315000Y-152400000D01*
X259715000Y-149225000D02*
X256540000Y-152400000D01*
X251460000Y-121920000D02*
X256540000Y-127000000D01*
X276225000Y-90805000D02*
X276225000Y-132715000D01*
X276225000Y-132715000D02*
X266700000Y-142240000D01*
X266700000Y-142240000D02*
X259715000Y-142240000D01*
X259715000Y-142240000D02*
X257810000Y-142240000D01*
X257810000Y-142240000D02*
X256540000Y-140970000D01*
X256540000Y-140970000D02*
X256540000Y-127000000D01*
X276225000Y-90805000D02*
X274320000Y-88900000D01*
X266700000Y-91440000D02*
X266700000Y-81280000D01*
X266700000Y-93980000D02*
X266700000Y-91440000D01*
X266700000Y-91440000D02*
X271780000Y-91440000D01*
X271780000Y-91440000D02*
X274320000Y-88900000D01*
X266700000Y-91440000D02*
X266700000Y-90805000D01*
X264160000Y-93980000D02*
X262890000Y-92710000D01*
X262890000Y-82550000D02*
X261620000Y-81280000D01*
X262890000Y-92710000D02*
X262890000Y-82550000D01*
X264160000Y-93980000D02*
X263525000Y-93980000D01*
X264160000Y-96520000D02*
X262255000Y-94615000D01*
X262255000Y-84455000D02*
X259080000Y-81280000D01*
X262255000Y-94615000D02*
X262255000Y-84455000D01*
X266700000Y-99060000D02*
X274320000Y-99060000D01*
X266700000Y-101600000D02*
X274320000Y-101600000D01*
X266700000Y-104140000D02*
X270270000Y-104140000D01*
X270270000Y-104140000D02*
X270510000Y-103900000D01*
X266700000Y-109220000D02*
X274320000Y-109220000D01*
X246380000Y-93980000D02*
X256540000Y-93980000D01*
X256540000Y-93980000D02*
X259080000Y-96520000D01*
X264160000Y-111760000D02*
X262255000Y-109855000D01*
X262255000Y-102235000D02*
X259080000Y-99060000D01*
X262255000Y-109855000D02*
X262255000Y-102235000D01*
X259080000Y-99060000D02*
X259080000Y-96520000D01*
X264160000Y-111760000D02*
X263525000Y-111760000D01*
X266700000Y-111760000D02*
X274320000Y-111760000D01*
X259080000Y-109220000D02*
X260350000Y-109220000D01*
X262255000Y-112395000D02*
X264160000Y-114300000D01*
X262255000Y-111125000D02*
X262255000Y-112395000D01*
X260350000Y-109220000D02*
X262255000Y-111125000D01*
X264160000Y-116840000D02*
X261620000Y-114300000D01*
X257175000Y-108585000D02*
X259080000Y-106680000D01*
X257175000Y-109855000D02*
X257175000Y-108585000D01*
X257810000Y-110490000D02*
X257175000Y-109855000D01*
X260350000Y-110490000D02*
X257810000Y-110490000D01*
X261620000Y-111760000D02*
X260350000Y-110490000D01*
X261620000Y-114300000D02*
X261620000Y-111760000D01*
X274320000Y-119380000D02*
X269240000Y-119380000D01*
X269240000Y-119380000D02*
X266700000Y-116840000D01*
X264160000Y-119380000D02*
X260985000Y-116205000D01*
X256540000Y-106680000D02*
X259080000Y-104140000D01*
X256540000Y-111760000D02*
X256540000Y-106680000D01*
X257810000Y-113030000D02*
X256540000Y-111760000D01*
X260350000Y-113030000D02*
X257810000Y-113030000D01*
X260985000Y-113665000D02*
X260350000Y-113030000D01*
X260985000Y-116205000D02*
X260985000Y-113665000D01*
X264160000Y-119380000D02*
X263525000Y-119380000D01*
X261620000Y-127000000D02*
X259080000Y-124460000D01*
X264160000Y-127000000D02*
X261620000Y-127000000D01*
X264160000Y-129540000D02*
X261620000Y-129540000D01*
X261620000Y-129540000D02*
X259080000Y-127000000D01*
X274320000Y-121920000D02*
X266700000Y-129540000D01*
X264160000Y-132080000D02*
X261620000Y-132080000D01*
X261620000Y-132080000D02*
X259080000Y-129540000D01*
X264160000Y-134620000D02*
X261620000Y-134620000D01*
X261620000Y-134620000D02*
X259080000Y-132080000D01*
X266700000Y-134620000D02*
X273050000Y-128270000D01*
X274320000Y-127000000D02*
X274320000Y-124460000D01*
X273050000Y-128270000D02*
X274320000Y-127000000D01*
X264160000Y-137160000D02*
X261620000Y-137160000D01*
X261620000Y-137160000D02*
X259080000Y-134620000D01*
X266700000Y-137160000D02*
X265430000Y-138430000D01*
X260350000Y-138430000D02*
X259080000Y-139700000D01*
X260985000Y-138430000D02*
X260350000Y-138430000D01*
X261620000Y-138430000D02*
X260985000Y-138430000D01*
X265430000Y-138430000D02*
X261620000Y-138430000D01*
X266700000Y-139700000D02*
X264795000Y-141605000D01*
X257175000Y-139065000D02*
X259080000Y-137160000D01*
X257175000Y-140335000D02*
X257175000Y-139065000D01*
X258445000Y-141605000D02*
X257175000Y-140335000D01*
X259080000Y-141605000D02*
X258445000Y-141605000D01*
X264795000Y-141605000D02*
X259080000Y-141605000D01*
X251460000Y-139700000D02*
X236855000Y-139700000D01*
X236855000Y-139700000D02*
X233045000Y-143510000D01*
X251460000Y-137160000D02*
X249555000Y-135255000D01*
X236855000Y-135255000D02*
X233045000Y-131445000D01*
X249555000Y-135255000D02*
X236855000Y-135255000D01*
X251460000Y-134620000D02*
X250825000Y-134620000D01*
X250825000Y-134620000D02*
X245745000Y-129540000D01*
X245745000Y-129540000D02*
X238125000Y-129540000D01*
X238125000Y-129540000D02*
X234950000Y-126365000D01*
X234950000Y-126365000D02*
X234950000Y-121285000D01*
X234950000Y-121285000D02*
X233045000Y-119380000D01*
X251460000Y-132080000D02*
X245745000Y-126365000D01*
X245745000Y-120015000D02*
X233045000Y-107315000D01*
X245745000Y-126365000D02*
X245745000Y-120015000D01*
X251460000Y-129540000D02*
X253365000Y-131445000D01*
X253365000Y-142875000D02*
X245745000Y-150495000D01*
X253365000Y-131445000D02*
X253365000Y-142875000D01*
X251460000Y-104140000D02*
X246380000Y-104140000D01*
X251460000Y-101600000D02*
X246380000Y-101600000D01*
X251460000Y-99060000D02*
X246380000Y-99060000D01*
X251460000Y-96520000D02*
X246380000Y-96520000D01*
X260350000Y-66040000D02*
X264795000Y-61595000D01*
X242570000Y-66040000D02*
X247015000Y-61595000D01*
X224155000Y-66040000D02*
X228600000Y-61595000D01*
X206375000Y-66040000D02*
X210820000Y-61595000D01*
X220345000Y-76200000D02*
X220345000Y-74295000D01*
X220345000Y-74295000D02*
X217170000Y-71120000D01*
X217170000Y-71120000D02*
X217170000Y-71755000D01*
X234950000Y-71120000D02*
X238125000Y-74295000D01*
X238125000Y-74295000D02*
X238125000Y-76200000D01*
X234950000Y-71120000D02*
X234950000Y-71755000D01*
X253365000Y-71120000D02*
X256540000Y-74295000D01*
X256540000Y-74295000D02*
X256540000Y-76200000D01*
X253365000Y-71120000D02*
X253365000Y-71755000D01*
X271145000Y-71120000D02*
X274320000Y-74295000D01*
X274320000Y-74295000D02*
X274320000Y-76200000D01*
X271145000Y-71120000D02*
X271145000Y-71755000D01*
X234315000Y-80645000D02*
X234315000Y-83820000D01*
X234315000Y-83820000D02*
X243840000Y-93345000D01*
X243840000Y-93345000D02*
X243840000Y-107315000D01*
X243840000Y-107315000D02*
X245110000Y-108585000D01*
X245110000Y-108585000D02*
X249555000Y-108585000D01*
X249555000Y-108585000D02*
X251460000Y-106680000D01*
X234315000Y-86995000D02*
X234315000Y-90170000D01*
X234315000Y-90170000D02*
X243205000Y-99060000D01*
X243205000Y-99060000D02*
X243205000Y-107950000D01*
X243205000Y-107950000D02*
X244475000Y-109220000D01*
X244475000Y-109220000D02*
X251460000Y-109220000D01*
X234315000Y-93345000D02*
X234315000Y-96520000D01*
X234315000Y-96520000D02*
X242570000Y-104775000D01*
X242570000Y-104775000D02*
X242570000Y-108585000D01*
X242570000Y-108585000D02*
X245745000Y-111760000D01*
X245745000Y-111760000D02*
X251460000Y-111760000D01*
X234315000Y-99695000D02*
X234315000Y-102870000D01*
X234315000Y-102870000D02*
X245745000Y-114300000D01*
X245745000Y-114300000D02*
X251460000Y-114300000D01*
X209550000Y-68580000D02*
X208280000Y-68580000D01*
X206375000Y-70485000D02*
X206375000Y-76200000D01*
X208280000Y-68580000D02*
X206375000Y-70485000D01*
X227330000Y-68580000D02*
X226695000Y-68580000D01*
X226695000Y-68580000D02*
X224155000Y-71120000D01*
X224155000Y-71120000D02*
X224155000Y-76200000D01*
X245745000Y-68580000D02*
X245110000Y-68580000D01*
X245110000Y-68580000D02*
X242570000Y-71120000D01*
X242570000Y-71120000D02*
X242570000Y-76200000D01*
X263525000Y-68580000D02*
X262255000Y-68580000D01*
X260350000Y-70485000D02*
X260350000Y-76200000D01*
X262255000Y-68580000D02*
X260350000Y-70485000D01*
M02*
